<?xml version="1.0"?>
<svg version="1.1" xmlns="http://www.w3.org/2000/svg" xmlns:xlink="http://www.w3.org/1999/xlink" width="240" height="48">
    <desc iVinci="yes" version="4.4" gridStep="8" showGrid="no" snapToGrid="no" codePlatform="0"/>
    <g id="Layer1">
        <g id="Shape1">
            <desc type="0" basicInfo-basicType="0" basicInfo-roundedRectRadius="12" basicInfo-polygonSides="6" basicInfo-starPoints="5" bounding="rect(-9.86451,-17.2983,19.729,34.5966)" text="" font-familyName="" font-pixelSize="20" font-bold="0" font-underline="0" font-alignment="1" strokeStyle="0" markerStart="0" markerEnd="0" shadowEnabled="0" shadowOffsetX="0" shadowOffsetY="2" shadowBlur="4" shadowOpacity="160" blurEnabled="0" blurRadius="4" transform="matrix(1,0,0,1,176.738,26.9061)" pers-center="0,0" pers-size="0,0" pers-start="0,0" pers-end="0,0" locked="0" mesh="" flag=""/>
            <path id="shapePath1" d="M185.884,20.3539 L177.865,20.3539 L177.865,17.893 C177.865,16.7446 177.763,16.0131 177.558,15.6987 C177.353,15.3842 177.011,15.227 176.532,15.227 C176.013,15.227 175.62,15.4389 175.353,15.8627 C175.087,16.2866 174.953,16.9291 174.953,17.7905 C174.953,18.8979 175.104,19.7319 175.404,20.2924 C175.692,20.853 176.505,21.5297 177.845,22.3227 C181.687,24.6059 184.107,26.4789 185.105,27.9418 C186.103,29.4047 186.602,31.7631 186.602,35.017 C186.602,37.3823 186.325,39.1254 185.771,40.2465 C185.217,41.3676 184.148,42.3076 182.562,43.0663 C180.976,43.8251 179.13,44.2045 177.025,44.2045 C174.714,44.2045 172.742,43.767 171.108,42.892 C169.474,42.017 168.404,40.9028 167.899,39.5493 C167.393,38.1957 167.14,36.2748 167.14,33.7866 L167.14,31.6127 L175.158,31.6127 L175.158,35.6528 C175.158,36.8969 175.271,37.6967 175.497,38.0522 C175.722,38.4077 176.122,38.5854 176.696,38.5854 C177.271,38.5854 177.698,38.3598 177.978,37.9086 C178.258,37.4575 178.399,36.7875 178.399,35.8989 C178.399,33.9438 178.132,32.6655 177.599,32.0639 C177.052,31.4623 175.705,30.4575 173.559,29.0493 C171.412,27.6274 169.99,26.5952 169.293,25.9526 C168.596,25.31 168.018,24.4213 167.56,23.2866 C167.102,22.1518 166.873,20.7026 166.873,18.9389 C166.873,16.3959 167.198,14.5366 167.847,13.3608 C168.497,12.185 169.546,11.2656 170.995,10.6025 C172.445,9.93939 174.195,9.60785 176.245,9.60785 C178.487,9.60785 180.398,9.97016 181.977,10.6948 C183.556,11.4194 184.602,12.332 185.115,13.4326 C185.628,14.5331 185.884,16.4028 185.884,19.0414 L185.884,20.3539 Z" style="stroke:#323232;stroke-opacity:1;stroke-width:0;stroke-linejoin:miter;stroke-miterlimit:2;stroke-linecap:round;fill-rule:evenodd;fill:#000000;fill-opacity:1;"/>
        </g>
        <g id="Shape2">
            <desc type="0" basicInfo-basicType="0" basicInfo-roundedRectRadius="12" basicInfo-polygonSides="6" basicInfo-starPoints="5" bounding="rect(-6.3365,-15.422,12.673,30.8438)" text="" font-familyName="" font-pixelSize="20" font-bold="0" font-underline="0" font-alignment="1" strokeStyle="0" markerStart="0" markerEnd="0" shadowEnabled="0" shadowOffsetX="0" shadowOffsetY="2" shadowBlur="4" shadowOpacity="160" blurEnabled="0" blurRadius="4" transform="matrix(1,0,0,1,194.032,28.0854)" pers-center="0,0" pers-size="0,0" pers-start="0,0" pers-end="0,0" locked="0" mesh="" flag=""/>
            <path id="shapePath2" d="M197.784,12.6635 L197.784,16.9496 L200.02,16.9496 L200.02,21.2563 L197.784,21.2563 L197.784,35.8168 C197.784,37.6078 197.877,38.6059 198.061,38.811 C198.246,39.0161 199.015,39.1186 200.368,39.1186 L200.368,43.5073 L197.026,43.5073 C195.139,43.5073 193.792,43.4286 192.986,43.2714 C192.179,43.1142 191.468,42.7519 190.853,42.1845 C190.237,41.6171 189.855,40.9677 189.704,40.2363 C189.554,39.5048 189.479,37.7856 189.479,35.0786 L189.479,21.2563 L187.695,21.2563 L187.695,16.9496 L189.479,16.9496 L189.479,12.6635 L197.784,12.6635 Z" style="stroke:#323232;stroke-opacity:1;stroke-width:0;stroke-linejoin:miter;stroke-miterlimit:2;stroke-linecap:round;fill-rule:evenodd;fill:#000000;fill-opacity:1;"/>
        </g>
        <g id="Shape3">
            <desc type="0" basicInfo-basicType="0" basicInfo-roundedRectRadius="12" basicInfo-polygonSides="6" basicInfo-starPoints="5" bounding="rect(-9.34101,-14.0991,18.682,28.1983)" text="" font-familyName="" font-pixelSize="20" font-bold="0" font-underline="0" font-alignment="1" strokeStyle="0" markerStart="0" markerEnd="0" shadowEnabled="0" shadowOffsetX="0" shadowOffsetY="2" shadowBlur="4" shadowOpacity="160" blurEnabled="0" blurRadius="4" transform="matrix(1,0,0,1,210.817,29.9004)" pers-center="0,0" pers-size="0,0" pers-start="0,0" pers-end="0,0" locked="0" mesh="" flag=""/>
            <path id="shapePath3" d="M209.248,26.8344 L201.476,26.8344 L201.476,25.0092 C201.476,22.9037 201.718,21.2802 202.204,20.1386 C202.689,18.997 203.663,17.9887 205.126,17.1137 C206.589,16.2387 208.489,15.8012 210.827,15.8012 C213.63,15.8012 215.742,16.2968 217.164,17.288 C218.586,18.2792 219.441,19.496 219.728,20.9384 C220.015,22.3808 220.158,25.351 220.158,29.8491 L220.158,43.5073 L212.099,43.5073 L212.099,41.0873 C211.593,42.058 210.94,42.7861 210.14,43.2714 C209.34,43.7568 208.387,43.9995 207.279,43.9995 C205.83,43.9995 204.501,43.5927 203.291,42.7792 C202.081,41.9658 201.476,40.185 201.476,37.437 L201.476,35.2016 C201.476,33.1645 201.797,31.7768 202.44,31.0385 C203.082,30.3002 204.675,29.4389 207.218,28.4545 C209.939,27.3881 211.395,26.6704 211.586,26.3012 C211.778,25.9321 211.873,25.1801 211.873,24.0454 C211.873,22.6235 211.767,21.6972 211.555,21.2665 C211.343,20.8359 210.991,20.6205 210.499,20.6205 C209.939,20.6205 209.59,20.8017 209.453,21.164 C209.317,21.5263 209.248,22.4662 209.248,23.9838 L209.248,26.8344 M211.873,30.5668 C210.547,31.5375 209.778,32.351 209.566,33.0073 C209.354,33.6635 209.248,34.6069 209.248,35.8373 C209.248,37.2455 209.34,38.1547 209.525,38.5649 C209.71,38.975 210.075,39.1801 210.622,39.1801 C211.142,39.1801 211.48,39.0195 211.637,38.6982 C211.795,38.3769 211.873,37.5327 211.873,36.1655 L211.873,30.5668 " style="stroke:#323232;stroke-opacity:1;stroke-width:0;stroke-linejoin:miter;stroke-miterlimit:2;stroke-linecap:round;fill-rule:evenodd;fill:#000000;fill-opacity:1;"/>
        </g>
        <g id="Shape4">
            <desc type="0" basicInfo-basicType="0" basicInfo-roundedRectRadius="12" basicInfo-polygonSides="6" basicInfo-starPoints="5" bounding="rect(-6.59351,-13.853,13.187,27.7061)" text="" font-familyName="" font-pixelSize="20" font-bold="0" font-underline="0" font-alignment="1" strokeStyle="0" markerStart="0" markerEnd="0" shadowEnabled="0" shadowOffsetX="0" shadowOffsetY="2" shadowBlur="4" shadowOpacity="160" blurEnabled="0" blurRadius="4" transform="matrix(1,0,0,1,229.595,29.6542)" pers-center="0,0" pers-size="0,0" pers-start="0,0" pers-end="0,0" locked="0" mesh="" flag=""/>
            <path id="shapePath4" d="M231.286,16.2934 L230.958,19.8618 C232.161,17.3051 233.904,15.9516 236.188,15.8012 L236.188,25.3784 C234.67,25.3784 233.556,25.5834 232.845,25.9936 C232.134,26.4037 231.696,26.9746 231.532,27.706 C231.368,28.4374 231.286,30.1225 231.286,32.7612 L231.286,43.5073 L223.001,43.5073 L223.001,16.2934 L231.286,16.2934 Z" style="stroke:#323232;stroke-opacity:1;stroke-width:0;stroke-linejoin:miter;stroke-miterlimit:2;stroke-linecap:round;fill-rule:evenodd;fill:#000000;fill-opacity:1;"/>
        </g>
        <g id="Shape5">
            <desc type="0" basicInfo-basicType="0" basicInfo-roundedRectRadius="12" basicInfo-polygonSides="6" basicInfo-starPoints="5" bounding="rect(-28.4252,-27.1351,56.8503,54.2701)" text="" font-familyName="" font-pixelSize="20" font-bold="0" font-underline="0" font-alignment="1" strokeStyle="0" markerStart="0" markerEnd="0" shadowEnabled="0" shadowOffsetX="0" shadowOffsetY="2" shadowBlur="4" shadowOpacity="160" blurEnabled="0" blurRadius="4" transform="matrix(0.754789,0,0,0.704181,152.493,25.0965)" pers-center="0,0" pers-size="0,0" pers-start="0,0" pers-end="0,0" locked="0" mesh="" flag=""/>
            <path id="shapePath5" d="M165.449,44.2045 L152.3,35.4726 L138.933,43.9087 L143.771,29.5434 L131.038,20.2905 L147.183,20.1426 L152.685,5.98853 L157.818,20.2623 L173.948,20.7693 L160.98,29.7335 L165.449,44.2045 M165.449,44.2045 Z" style="stroke:none;fill-rule:evenodd;fill:#000080;fill-opacity:1;"/>
        </g>
        <g id="Shape6">
            <desc type="0" basicInfo-basicType="0" basicInfo-roundedRectRadius="12" basicInfo-polygonSides="6" basicInfo-starPoints="5" bounding="rect(0,0,0,0)" text="" font-familyName="" font-pixelSize="20" font-bold="0" font-underline="0" font-alignment="1" strokeStyle="0" markerStart="0" markerEnd="0" shadowEnabled="0" shadowOffsetX="0" shadowOffsetY="2" shadowBlur="4" shadowOpacity="160" blurEnabled="0" blurRadius="4" transform="matrix(1,0,0,1,-15.2276,-49.746)" pers-center="0,0" pers-size="0,0" pers-start="0,0" pers-end="0,0" locked="0" mesh="" flag=""/>
            <path id="shapePath6" d="M-15.2276,-49.746 Z" style="stroke:none;fill-rule:evenodd;fill:#000000;fill-opacity:1;"/>
        </g>
        <g id="Shape7">
            <desc type="0" basicInfo-basicType="0" basicInfo-roundedRectRadius="12" basicInfo-polygonSides="6" basicInfo-starPoints="5" bounding="rect(0,0,0,0)" text="" font-familyName="" font-pixelSize="20" font-bold="0" font-underline="0" font-alignment="1" strokeStyle="0" markerStart="0" markerEnd="0" shadowEnabled="0" shadowOffsetX="0" shadowOffsetY="2" shadowBlur="4" shadowOpacity="160" blurEnabled="0" blurRadius="4" transform="matrix(1,0,0,1,-15.2276,-49.746)" pers-center="0,0" pers-size="0,0" pers-start="0,0" pers-end="0,0" locked="0" mesh="" flag=""/>
            <path id="shapePath7" d="M-15.2276,-49.746 Z" style="stroke:#000000;stroke-opacity:1;stroke-width:0;stroke-linejoin:bevel;stroke-miterlimit:2;stroke-linecap:square;fill-rule:evenodd;fill:#000000;fill-opacity:1;"/>
        </g>
        <g id="Shape8">
            <desc type="0" basicInfo-basicType="0" basicInfo-roundedRectRadius="12" basicInfo-polygonSides="6" basicInfo-starPoints="5" bounding="rect(0,0,0,0)" text="" font-familyName="" font-pixelSize="20" font-bold="0" font-underline="0" font-alignment="1" strokeStyle="0" markerStart="0" markerEnd="0" shadowEnabled="0" shadowOffsetX="0" shadowOffsetY="2" shadowBlur="4" shadowOpacity="160" blurEnabled="0" blurRadius="4" transform="matrix(1,0,0,1,-15.2276,-49.746)" pers-center="0,0" pers-size="0,0" pers-start="0,0" pers-end="0,0" locked="0" mesh="" flag=""/>
            <path id="shapePath8" d="M-15.2276,-49.746 Z" style="stroke:none;fill-rule:evenodd;fill:#fb0007;fill-opacity:1;"/>
        </g>
        <g id="Shape9">
            <desc type="0" basicInfo-basicType="0" basicInfo-roundedRectRadius="12" basicInfo-polygonSides="6" basicInfo-starPoints="5" bounding="rect(0,0,0,0)" text="" font-familyName="" font-pixelSize="20" font-bold="0" font-underline="0" font-alignment="1" strokeStyle="0" markerStart="0" markerEnd="0" shadowEnabled="0" shadowOffsetX="0" shadowOffsetY="2" shadowBlur="4" shadowOpacity="160" blurEnabled="0" blurRadius="4" transform="matrix(1,0,0,1,-15.2276,-49.746)" pers-center="0,0" pers-size="0,0" pers-start="0,0" pers-end="0,0" locked="0" mesh="" flag=""/>
            <path id="shapePath9" d="M-15.2276,-49.746 Z" style="stroke:#000000;stroke-opacity:1;stroke-width:0;stroke-linejoin:bevel;stroke-miterlimit:2;stroke-linecap:square;fill-rule:evenodd;fill:#fb0007;fill-opacity:1;"/>
        </g>
        <g id="Shape10">
            <desc type="0" basicInfo-basicType="4" basicInfo-roundedRectRadius="12" basicInfo-polygonSides="6" basicInfo-starPoints="5" bounding="rect(-24.0433,-21.3141,48.0867,42.6282)" text="" font-familyName="Helvetica" font-pixelSize="20" font-bold="0" font-underline="0" font-alignment="1" strokeStyle="0" markerStart="0" markerEnd="0" shadowEnabled="0" shadowOffsetX="0" shadowOffsetY="2" shadowBlur="4" shadowOpacity="160" blurEnabled="0" blurRadius="4" transform="matrix(0.950515,0,0,1,24.5854,24)" pers-center="0,0" pers-size="0,0" pers-start="0,0" pers-end="0,0" locked="0" mesh="" flag=""/>
            <path id="shapePath10" d="M1.7319,24 C1.7319,12.2285 11.9638,2.6859 24.5855,2.6859 C37.2071,2.6859 47.439,12.2285 47.439,24 C47.439,35.7714 37.2071,45.3141 24.5855,45.3141 C11.9638,45.3141 1.7319,35.7714 1.7319,24 Z" style="stroke:#000000;stroke-opacity:1;stroke-width:4;stroke-linejoin:miter;stroke-miterlimit:2;stroke-linecap:round;fill:none;"/>
        </g>
        <g id="Shape11">
            <desc type="0" basicInfo-basicType="0" basicInfo-roundedRectRadius="12" basicInfo-polygonSides="6" basicInfo-starPoints="5" bounding="rect(-28.425,-27.135,56.8499,54.27)" text="" font-familyName="" font-pixelSize="20" font-bold="0" font-underline="0" font-alignment="1" strokeStyle="0" markerStart="0" markerEnd="0" shadowEnabled="0" shadowOffsetX="0" shadowOffsetY="2" shadowBlur="4" shadowOpacity="160" blurEnabled="0" blurRadius="4" transform="matrix(0.754789,0,0,0.704181,24.5855,21.7938)" pers-center="0,0" pers-size="0,0" pers-start="0,0" pers-end="0,0" locked="0" mesh="" flag=""/>
            <path id="shapePath11" d="M37.5414,40.9018 L24.393,32.1699 L11.0257,40.606 L15.8639,26.2407 L3.13061,16.9878 L19.2755,16.8399 L24.7779,2.6859 L29.9105,16.9596 L46.0403,17.4666 L33.073,26.4309 L37.5414,40.9018 M37.5414,40.9018 Z" style="stroke:#000000;stroke-opacity:1;stroke-width:2.5;stroke-linejoin:bevel;stroke-miterlimit:2;stroke-linecap:square;fill-rule:evenodd;fill:#000080;fill-opacity:1;"/>
        </g>
        <g id="Shape12">
            <desc type="0" basicInfo-basicType="0" basicInfo-roundedRectRadius="12" basicInfo-polygonSides="6" basicInfo-starPoints="5" bounding="rect(-9.9873,-17.2983,19.9746,34.5966)" text="" font-familyName="" font-pixelSize="20" font-bold="0" font-underline="0" font-alignment="1" strokeStyle="0" markerStart="0" markerEnd="0" shadowEnabled="0" shadowOffsetX="0" shadowOffsetY="2" shadowBlur="4" shadowOpacity="160" blurEnabled="0" blurRadius="4" transform="matrix(1,0,0,1,61.8772,26.9061)" pers-center="0,0" pers-size="0,0" pers-start="0,0" pers-end="0,0" locked="0" mesh="" flag=""/>
            <path id="shapePath12" d="M71.8645,29.7465 C71.8645,33.0825 71.7859,35.4443 71.6287,36.832 C71.4714,38.2197 70.9792,39.4877 70.1521,40.6362 C69.325,41.7846 68.2073,42.6664 66.7991,43.2817 C65.3909,43.8969 63.7502,44.2045 61.8772,44.2045 C60.0999,44.2045 58.5037,43.914 57.0886,43.3329 C55.6736,42.7519 54.5354,41.8803 53.6741,40.7182 C52.8127,39.5561 52.3,38.2914 52.136,36.9243 C51.9719,35.5571 51.8899,33.1645 51.8899,29.7465 L51.8899,24.0659 C51.8899,20.7299 51.9685,18.3681 52.1257,16.9804 C52.283,15.5927 52.7751,14.3246 53.6023,13.1762 C54.4294,12.0278 55.5471,11.1459 56.9553,10.5307 C58.3635,9.91547 60.0042,9.60785 61.8772,9.60785 C63.6545,9.60785 65.2507,9.89838 66.6658,10.4794 C68.0808,11.0605 69.219,11.9321 70.0803,13.0942 C70.9417,14.2563 71.4543,15.5209 71.6184,16.8881 C71.7825,18.2553 71.8645,20.6479 71.8645,24.0659 L71.8645,29.7465 M63.2307,18.8364 C63.2307,17.2914 63.1453,16.3037 62.9744,15.873 C62.8035,15.4423 62.4514,15.227 61.9182,15.227 C61.467,15.227 61.1218,15.4013 60.8826,15.7499 C60.6433,16.0986 60.5237,17.1274 60.5237,18.8364 L60.5237,34.3403 C60.5237,36.268 60.6023,37.4575 60.7595,37.9086 C60.9167,38.3598 61.2825,38.5854 61.8567,38.5854 C62.4446,38.5854 62.8206,38.3256 62.9846,37.8061 C63.1487,37.2866 63.2307,36.0493 63.2307,34.0942 L63.2307,18.8364 " style="stroke:#323232;stroke-opacity:1;stroke-width:0;stroke-linejoin:miter;stroke-miterlimit:2;stroke-linecap:round;fill-rule:evenodd;fill:#010101;fill-opacity:1;"/>
        </g>
        <g id="Shape13">
            <desc type="0" basicInfo-basicType="0" basicInfo-roundedRectRadius="12" basicInfo-polygonSides="6" basicInfo-starPoints="5" bounding="rect(-9.53613,-15.791,19.0723,31.582)" text="" font-familyName="" font-pixelSize="20" font-bold="0" font-underline="0" font-alignment="1" strokeStyle="0" markerStart="0" markerEnd="0" shadowEnabled="0" shadowOffsetX="0" shadowOffsetY="2" shadowBlur="4" shadowOpacity="160" blurEnabled="0" blurRadius="4" transform="matrix(1,0,0,1,84.3635,31.5922)" pers-center="0,0" pers-size="0,0" pers-start="0,0" pers-end="0,0" locked="0" mesh="" flag=""/>
            <path id="shapePath13" d="M83.2561,16.2934 L83.1125,18.6928 C83.8508,17.7221 84.6643,16.9975 85.553,16.519 C86.4417,16.0405 87.4124,15.8012 88.4651,15.8012 C89.7502,15.8012 90.8611,16.1464 91.7976,16.8369 C92.7341,17.5273 93.3186,18.3237 93.551,19.226 C93.7834,20.1284 93.8997,21.6596 93.8997,23.8198 L93.8997,35.2836 C93.8997,37.7582 93.7527,39.5185 93.4587,40.5644 C93.1648,41.6103 92.5632,42.4443 91.6541,43.0663 C90.7449,43.6884 89.6477,43.9995 88.3625,43.9995 C87.3372,43.9995 86.387,43.7602 85.512,43.2817 C84.637,42.8032 83.8372,42.0922 83.1125,41.1489 L83.1125,47.3832 L74.8274,47.3832 L74.8274,16.2934 L83.2561,16.2934 M85.6145,24.2094 C85.6145,22.5278 85.553,21.5092 85.4299,21.1537 C85.3069,20.7983 84.9651,20.6205 84.4045,20.6205 C83.8577,20.6205 83.5056,20.8256 83.3484,21.2358 C83.1912,21.6459 83.1125,22.6371 83.1125,24.2094 L83.1125,35.4887 C83.1125,37.1293 83.1946,38.1547 83.3586,38.5649 C83.5227,38.975 83.8782,39.1801 84.425,39.1801 C84.9583,39.1801 85.2898,38.9921 85.4197,38.6161 C85.5496,38.2402 85.6145,37.3276 85.6145,35.8784 L85.6145,24.2094 " style="stroke:#323232;stroke-opacity:1;stroke-width:0;stroke-linejoin:miter;stroke-miterlimit:2;stroke-linecap:round;fill-rule:evenodd;fill:#010101;fill-opacity:1;"/>
        </g>
        <g id="Shape14">
            <desc type="0" basicInfo-basicType="0" basicInfo-roundedRectRadius="12" basicInfo-polygonSides="6" basicInfo-starPoints="5" bounding="rect(-9.50542,-14.0991,19.0108,28.1983)" text="" font-familyName="" font-pixelSize="20" font-bold="0" font-underline="0" font-alignment="1" strokeStyle="0" markerStart="0" markerEnd="0" shadowEnabled="0" shadowOffsetX="0" shadowOffsetY="2" shadowBlur="4" shadowOpacity="160" blurEnabled="0" blurRadius="4" transform="matrix(1,0,0,1,105.884,29.9004)" pers-center="0,0" pers-size="0,0" pers-start="0,0" pers-end="0,0" locked="0" mesh="" flag=""/>
            <path id="shapePath14" d="M115.389,30.3823 L104.663,30.3823 L104.663,36.268 C104.663,37.4985 104.752,38.2914 104.93,38.6469 C105.108,39.0024 105.449,39.1801 105.955,39.1801 C106.584,39.1801 107.005,38.9443 107.217,38.4726 C107.428,38.0009 107.534,37.0883 107.534,35.7348 L107.534,32.1459 L115.389,32.1459 L115.389,34.1557 C115.389,35.8373 115.283,37.1293 115.071,38.0317 C114.859,38.934 114.364,39.8979 113.584,40.9233 C112.805,41.9487 111.817,42.7177 110.621,43.2304 C109.425,43.7431 107.924,43.9995 106.119,43.9995 C104.369,43.9995 102.824,43.7465 101.485,43.2407 C100.145,42.7348 99.1023,42.041 98.3572,41.1591 C97.6121,40.2773 97.0959,39.3066 96.8088,38.247 C96.5217,37.1874 96.3782,35.6459 96.3782,33.6225 L96.3782,25.686 C96.3782,23.3071 96.6995,21.4306 97.342,20.0566 C97.9846,18.6826 99.0374,17.6298 100.5,16.8984 C101.963,16.1669 103.645,15.8012 105.545,15.8012 C107.869,15.8012 109.787,16.2421 111.298,17.124 C112.808,18.0058 113.868,19.1747 114.476,20.6308 C115.085,22.0869 115.389,24.1342 115.389,26.7729 L115.389,30.3823 M107.083,25.9526 L107.083,23.9633 C107.083,22.5551 107.008,21.6459 106.858,21.2358 C106.707,20.8256 106.4,20.6205 105.935,20.6205 C105.361,20.6205 105.005,20.7949 104.868,21.1435 C104.732,21.4921 104.663,22.4321 104.663,23.9633 L104.663,25.9526 L107.083,25.9526 " style="stroke:#323232;stroke-opacity:1;stroke-width:0;stroke-linejoin:miter;stroke-miterlimit:2;stroke-linecap:round;fill-rule:evenodd;fill:#010101;fill-opacity:1;"/>
        </g>
        <g id="Shape15">
            <desc type="0" basicInfo-basicType="0" basicInfo-roundedRectRadius="12" basicInfo-polygonSides="6" basicInfo-starPoints="5" bounding="rect(-9.55649,-13.853,19.113,27.7061)" text="" font-familyName="" font-pixelSize="20" font-bold="0" font-underline="0" font-alignment="1" strokeStyle="0" markerStart="0" markerEnd="0" shadowEnabled="0" shadowOffsetX="0" shadowOffsetY="2" shadowBlur="4" shadowOpacity="160" blurEnabled="0" blurRadius="4" transform="matrix(1,0,0,1,127.649,29.6542)" pers-center="0,0" pers-size="0,0" pers-start="0,0" pers-end="0,0" locked="0" mesh="" flag=""/>
            <path id="shapePath15" d="M126.522,16.2934 L126.378,18.7954 C126.98,17.7973 127.715,17.0488 128.583,16.5497 C129.451,16.0507 130.452,15.8012 131.587,15.8012 C133.009,15.8012 134.171,16.1362 135.073,16.8061 C135.976,17.476 136.557,18.3203 136.817,19.3388 C137.076,20.3574 137.206,22.0561 137.206,24.435 L137.206,43.5073 L128.921,43.5073 L128.921,24.6606 C128.921,22.7875 128.86,21.6459 128.737,21.2358 C128.614,20.8256 128.272,20.6205 127.711,20.6205 C127.123,20.6205 126.754,20.8564 126.604,21.3281 C126.453,21.7997 126.378,23.061 126.378,25.1118 L126.378,43.5073 L118.093,43.5073 L118.093,16.2934 L126.522,16.2934 Z" style="stroke:#323232;stroke-opacity:1;stroke-width:0;stroke-linejoin:miter;stroke-miterlimit:2;stroke-linecap:round;fill-rule:evenodd;fill:#010101;fill-opacity:1;"/>
        </g>
    </g>
</svg>
