<?xml version="1.0" encoding="UTF-8"?>
<!DOCTYPE svg PUBLIC "-//W3C//DTD SVG 1.1//EN" "http://www.w3.org/Graphics/SVG/1.1/DTD/svg11.dtd">
<svg version="1.1" xmlns="http://www.w3.org/2000/svg" xmlns:xlink="http://www.w3.org/1999/xlink" width="300" height="200"  xml:space="preserve">
    <g id="layer1">
        <g id="shape1">
            <path id="bezier" stroke="rgb(38, 38, 38)" stroke-width="0.5" stroke-linecap="round" stroke-miterlimit="2" fill="rgb(0, 0, 0)" d="M 217.88,99.35 L 209.87,99.35 209.87,96.89 C 209.87,95.74 209.76,95.01 209.56,94.7 209.35,94.38 209.01,94.23 208.53,94.23 208.01,94.23 207.62,94.44 207.35,94.86 207.09,95.29 206.95,95.93 206.95,96.79 206.95,97.9 207.1,98.73 207.4,99.29 207.69,99.85 208.5,100.53 209.84,101.32 213.69,103.61 216.11,105.48 217.1,106.94 218.1,108.4 218.6,110.76 218.6,114.02 218.6,116.38 218.32,118.13 217.77,119.25 217.22,120.37 216.15,121.31 214.56,122.07 212.98,122.83 211.13,123.2 209.03,123.2 206.71,123.2 204.74,122.77 203.11,121.89 201.47,121.02 200.4,119.9 199.9,118.55 199.39,117.2 199.14,115.27 199.14,112.79 L 199.14,110.61 207.16,110.61 207.16,114.65 C 207.16,115.9 207.27,116.7 207.5,117.05 207.72,117.41 208.12,117.59 208.7,117.59 209.27,117.59 209.7,117.36 209.98,116.91 210.26,116.46 210.4,115.79 210.4,114.9 210.4,112.94 210.13,111.67 209.6,111.06 209.05,110.46 207.71,109.46 205.56,108.05 203.41,106.63 201.99,105.6 201.29,104.95 200.6,104.31 200.02,103.42 199.56,102.29 199.1,101.15 198.87,99.7 198.87,97.94 198.87,95.4 199.2,93.54 199.85,92.36 200.5,91.19 201.55,90.27 203,89.6 204.44,88.94 206.19,88.61 208.25,88.61 210.49,88.61 212.4,88.97 213.98,89.69 215.56,90.42 216.6,91.33 217.12,92.43 217.63,93.53 217.88,95.4 217.88,98.04 L 217.88,99.35 Z M 217.88,99.35" />
        </g>
        <g id="shape2">
            <path id="bezier2" stroke="rgb(38, 38, 38)" stroke-width="0.5" stroke-linecap="round" stroke-miterlimit="2" fill="rgb(0, 0, 0)" d="M 229.78,91.66 L 229.78,95.95 232.02,95.95 232.02,100.26 229.78,100.26 229.78,114.82 C 229.78,116.61 229.88,117.61 230.06,117.81 230.25,118.02 231.01,118.12 232.37,118.12 L 232.37,122.51 229.03,122.51 C 227.14,122.51 225.79,122.43 224.99,122.27 224.18,122.11 223.47,121.75 222.85,121.18 222.24,120.62 221.85,119.97 221.7,119.24 221.55,118.5 221.48,116.79 221.48,114.08 L 221.48,100.26 219.69,100.26 219.69,95.95 221.48,95.95 221.48,91.66 229.78,91.66 Z M 229.78,91.66" />
        </g>
        <g id="shape3">
            <path id="bezier3" stroke="rgb(38, 38, 38)" stroke-width="0.5" stroke-linecap="round" stroke-miterlimit="2" fill="rgb(0, 0, 0)" d="M 241.25,105.83 L 233.48,105.83 233.48,104.01 C 233.48,101.9 233.72,100.28 234.2,99.14 234.69,98 235.66,96.99 237.13,96.11 238.59,95.24 240.49,94.8 242.83,94.8 245.63,94.8 247.74,95.3 249.16,96.29 250.59,97.28 251.44,98.5 251.73,99.94 252.01,101.38 252.16,104.35 252.16,108.85 L 252.16,122.51 244.1,122.51 244.1,120.09 C 243.59,121.06 242.94,121.79 242.14,122.27 241.34,122.76 240.39,123 239.28,123 237.83,123 236.5,122.59 235.29,121.78 234.08,120.97 233.48,119.19 233.48,116.44 L 233.48,114.2 C 233.48,112.16 233.8,110.78 234.44,110.04 235.08,109.3 236.68,108.44 239.22,107.45 241.94,106.39 243.4,105.67 243.59,105.3 243.78,104.93 243.87,104.18 243.87,103.05 243.87,101.62 243.77,100.7 243.56,100.27 243.34,99.84 242.99,99.62 242.5,99.62 241.94,99.62 241.59,99.8 241.45,100.16 241.32,100.53 241.25,101.47 241.25,102.98 L 241.25,105.83 Z M 243.87,109.57 C 242.55,110.54 241.78,111.35 241.57,112.01 241.35,112.66 241.25,113.61 241.25,114.84 241.25,116.25 241.34,117.15 241.53,117.56 241.71,117.97 242.07,118.18 242.62,118.18 243.14,118.18 243.48,118.02 243.64,117.7 243.79,117.38 243.87,116.53 243.87,115.17 L 243.87,109.57 Z M 243.87,109.57" />
        </g>
        <g id="shape4">
            <path id="bezier4" stroke="rgb(38, 38, 38)" stroke-width="0.5" stroke-linecap="round" stroke-miterlimit="2" fill="rgb(0, 0, 0)" d="M 263.29,95.29 L 262.96,98.86 C 264.16,96.31 265.9,94.95 268.19,94.8 L 268.19,104.38 C 266.67,104.38 265.56,104.58 264.85,104.99 264.13,105.4 263.7,105.97 263.53,106.71 263.37,107.44 263.29,109.12 263.29,111.76 L 263.29,122.51 255,122.51 255,95.29 263.29,95.29 Z M 263.29,95.29" />
        </g>
        <g id="shape5">
            <path id="bezier5" stroke="none" fill="rgb(251, 0, 10)" d="M 197.45,123.2 L 184.3,114.47 170.93,122.91 175.77,108.54 163.04,99.29 179.18,99.14 184.69,84.99 189.82,99.26 205.95,99.77 192.98,108.73 197.45,123.2 Z M 197.45,123.2" />
        </g>
        <g id="shape6">
        </g>
        <g id="shape7">
        </g>
        <g id="shape8">
        </g>
        <g id="shape9">
        </g>
        <g id="shape10">
            <path id="bezier6" stroke="rgb(0, 0, 0)" stroke-width="4" stroke-linecap="round" stroke-miterlimit="2" fill="none" d="M 33.73,103 C 33.73,91.23 43.96,81.69 56.59,81.69 69.21,81.69 79.44,91.23 79.44,103 79.44,114.77 69.21,124.31 56.59,124.31 43.96,124.31 33.73,114.77 33.73,103 Z M 33.73,103" />
        </g>
        <g id="shape11">
            <path id="bezier7" stroke="rgb(0, 0, 0)" stroke-width="2.5" stroke-linecap="square" stroke-linejoin="bevel" stroke-miterlimit="2" fill="rgb(251, 0, 10)" d="M 69.54,119.9 L 56.39,111.17 43.03,119.61 47.86,105.24 35.13,95.99 51.28,95.84 56.78,81.69 61.91,95.96 78.04,96.47 65.07,105.43 69.54,119.9 Z M 69.54,119.9" />
        </g>
        <g id="shape12">
            <path id="bezier8" stroke="rgb(38, 38, 38)" stroke-width="0.5" stroke-linecap="round" stroke-miterlimit="2" fill="rgb(1, 1, 1)" d="M 103.86,108.75 C 103.86,112.08 103.79,114.44 103.63,115.83 103.47,117.22 102.98,118.49 102.15,119.64 101.33,120.78 100.21,121.67 98.8,122.28 97.39,122.9 95.75,123.2 93.88,123.2 92.1,123.2 90.5,122.91 89.09,122.33 87.67,121.75 86.54,120.88 85.67,119.72 84.81,118.56 84.3,117.29 84.14,115.92 83.97,114.56 83.89,112.16 83.89,108.75 L 83.89,103.07 C 83.89,99.73 83.97,97.37 84.13,95.98 84.28,94.59 84.78,93.32 85.6,92.18 86.43,91.03 87.55,90.15 88.96,89.53 90.36,88.92 92,88.61 93.88,88.61 95.65,88.61 97.25,88.9 98.67,89.48 100.08,90.06 101.22,90.93 102.08,92.09 102.94,93.26 103.45,94.52 103.62,95.89 103.78,97.26 103.86,99.65 103.86,103.07 L 103.86,108.75 Z M 95.23,97.84 C 95.23,96.29 95.15,95.3 94.97,94.87 94.8,94.44 94.45,94.23 93.92,94.23 93.47,94.23 93.12,94.4 92.88,94.75 92.64,95.1 92.52,96.13 92.52,97.84 L 92.52,113.34 C 92.52,115.27 92.6,116.46 92.76,116.91 92.92,117.36 93.28,117.59 93.86,117.59 94.44,117.59 94.82,117.33 94.98,116.81 95.15,116.29 95.23,115.05 95.23,113.09 L 95.23,97.84 Z M 95.23,97.84" />
        </g>
        <g id="shape13">
            <path id="bezier9" stroke="rgb(38, 38, 38)" stroke-width="0.5" stroke-linecap="round" stroke-miterlimit="2" fill="rgb(1, 1, 1)" d="M 115.26,95.29 L 115.11,97.69 C 115.85,96.72 116.66,96 117.55,95.52 118.44,95.04 119.41,94.8 120.47,94.8 121.75,94.8 122.86,95.15 123.8,95.84 124.73,96.53 125.32,97.32 125.55,98.23 125.78,99.13 125.9,100.66 125.9,102.82 L 125.9,114.28 C 125.9,116.76 125.75,118.52 125.46,119.56 125.16,120.61 124.56,121.44 123.65,122.07 122.74,122.69 121.65,123 120.36,123 119.34,123 118.39,122.76 117.51,122.28 116.64,121.8 115.84,121.09 115.11,120.15 L 115.11,126.38 106.83,126.38 106.83,95.29 115.26,95.29 Z M 117.61,103.21 C 117.61,101.53 117.55,100.51 117.43,100.15 117.31,99.8 116.97,99.62 116.4,99.62 115.86,99.62 115.51,99.83 115.35,100.24 115.19,100.65 115.11,101.64 115.11,103.21 L 115.11,114.49 C 115.11,116.13 115.19,117.15 115.36,117.56 115.52,117.97 115.88,118.18 116.42,118.18 116.96,118.18 117.29,117.99 117.42,117.62 117.55,117.24 117.61,116.33 117.61,114.88 L 117.61,103.21 Z M 117.61,103.21" />
        </g>
        <g id="shape14">
            <path id="bezier10" stroke="rgb(38, 38, 38)" stroke-width="0.5" stroke-linecap="round" stroke-miterlimit="2" fill="rgb(1, 1, 1)" d="M 147.39,109.38 L 136.66,109.38 136.66,115.27 C 136.66,116.5 136.75,117.29 136.93,117.65 137.11,118 137.45,118.18 137.95,118.18 138.58,118.18 139,117.94 139.22,117.47 139.43,117 139.53,116.09 139.53,114.73 L 139.53,111.15 147.39,111.15 147.39,113.16 C 147.39,114.84 147.28,116.13 147.07,117.03 146.86,117.93 146.36,118.9 145.58,119.92 144.81,120.95 143.82,121.72 142.62,122.23 141.42,122.74 139.92,123 138.12,123 136.37,123 134.82,122.75 133.49,122.24 132.15,121.73 131.1,121.04 130.36,120.16 129.61,119.28 129.1,118.31 128.81,117.25 128.52,116.19 128.38,114.65 128.38,112.62 L 128.38,104.69 C 128.38,102.31 128.7,100.43 129.34,99.06 129.98,97.68 131.04,96.63 132.5,95.9 133.96,95.17 135.65,94.8 137.55,94.8 139.87,94.8 141.79,95.24 143.3,96.12 144.81,97.01 145.87,98.17 146.48,99.63 147.08,101.09 147.39,103.13 147.39,105.77 L 147.39,109.38 Z M 139.08,104.95 L 139.08,102.96 C 139.08,101.56 139.01,100.65 138.86,100.24 138.71,99.83 138.4,99.62 137.94,99.62 137.36,99.62 137,99.79 136.87,100.14 136.73,100.49 136.66,101.43 136.66,102.96 L 136.66,104.95 139.08,104.95 Z M 139.08,104.95" />
        </g>
        <g id="shape15">
            <path id="bezier11" stroke="rgb(38, 38, 38)" stroke-width="0.5" stroke-linecap="round" stroke-miterlimit="2" fill="rgb(1, 1, 1)" d="M 158.52,95.29 L 158.38,97.8 C 158.98,96.8 159.72,96.05 160.58,95.55 161.45,95.05 162.45,94.8 163.59,94.8 165.01,94.8 166.17,95.14 167.07,95.81 167.98,96.48 168.56,97.32 168.82,98.34 169.08,99.36 169.21,101.06 169.21,103.44 L 169.21,122.51 160.92,122.51 160.92,103.66 C 160.92,101.79 160.86,100.65 160.74,100.24 160.61,99.83 160.27,99.62 159.71,99.62 159.12,99.62 158.75,99.86 158.6,100.33 158.45,100.8 158.38,102.06 158.38,104.11 L 158.38,122.51 150.09,122.51 150.09,95.29 158.52,95.29 Z M 158.52,95.29" />
        </g>
    </g>
</svg>
