<?xml version="1.0"?>
<svg version="1.1" xmlns="http://www.w3.org/2000/svg" xmlns:xlink="http://www.w3.org/1999/xlink" width="300" height="180">
    <desc iVinci="yes" version="4.4" gridStep="8" showGrid="no" snapToGrid="no" codePlatform="0"/>
    <g id="Layer1">
        <g id="Shape1">
            <desc type="0" basicInfo-basicType="0" basicInfo-roundedRectRadius="12" basicInfo-polygonSides="6" basicInfo-starPoints="5" bounding="rect(0,0,0,0)" text="" font-familyName="" font-pixelSize="20" font-bold="0" font-underline="0" font-alignment="1" strokeStyle="0" markerStart="0" markerEnd="0" shadowEnabled="0" shadowOffsetX="0" shadowOffsetY="2" shadowBlur="4" shadowOpacity="160" blurEnabled="0" blurRadius="4" transform="matrix(1,0,0,1,-15.2276,-49.746)" pers-center="0,0" pers-size="0,0" pers-start="0,0" pers-end="0,0" locked="0" mesh="" flag=""/>
            <path id="shapePath1" d="M-15.2276,-49.746 Z" style="stroke:none;fill-rule:evenodd;fill:#000000;fill-opacity:1;"/>
        </g>
        <g id="Shape2">
            <desc type="0" basicInfo-basicType="0" basicInfo-roundedRectRadius="12" basicInfo-polygonSides="6" basicInfo-starPoints="5" bounding="rect(0,0,0,0)" text="" font-familyName="" font-pixelSize="20" font-bold="0" font-underline="0" font-alignment="1" strokeStyle="0" markerStart="0" markerEnd="0" shadowEnabled="0" shadowOffsetX="0" shadowOffsetY="2" shadowBlur="4" shadowOpacity="160" blurEnabled="0" blurRadius="4" transform="matrix(1,0,0,1,-15.2276,-49.746)" pers-center="0,0" pers-size="0,0" pers-start="0,0" pers-end="0,0" locked="0" mesh="" flag=""/>
            <path id="shapePath2" d="M-15.2276,-49.746 Z" style="stroke:#000000;stroke-opacity:1;stroke-width:0;stroke-linejoin:bevel;stroke-miterlimit:2;stroke-linecap:square;fill-rule:evenodd;fill:#000000;fill-opacity:1;"/>
        </g>
        <g id="Shape3">
            <desc type="0" basicInfo-basicType="0" basicInfo-roundedRectRadius="12" basicInfo-polygonSides="6" basicInfo-starPoints="5" bounding="rect(0,0,0,0)" text="" font-familyName="" font-pixelSize="20" font-bold="0" font-underline="0" font-alignment="1" strokeStyle="0" markerStart="0" markerEnd="0" shadowEnabled="0" shadowOffsetX="0" shadowOffsetY="2" shadowBlur="4" shadowOpacity="160" blurEnabled="0" blurRadius="4" transform="matrix(1,0,0,1,-15.2276,-49.746)" pers-center="0,0" pers-size="0,0" pers-start="0,0" pers-end="0,0" locked="0" mesh="" flag=""/>
            <path id="shapePath3" d="M-15.2276,-49.746 Z" style="stroke:none;fill-rule:evenodd;fill:#fb0007;fill-opacity:1;"/>
        </g>
        <g id="Shape4">
            <desc type="0" basicInfo-basicType="0" basicInfo-roundedRectRadius="12" basicInfo-polygonSides="6" basicInfo-starPoints="5" bounding="rect(0,0,0,0)" text="" font-familyName="" font-pixelSize="20" font-bold="0" font-underline="0" font-alignment="1" strokeStyle="0" markerStart="0" markerEnd="0" shadowEnabled="0" shadowOffsetX="0" shadowOffsetY="2" shadowBlur="4" shadowOpacity="160" blurEnabled="0" blurRadius="4" transform="matrix(1,0,0,1,-15.2276,-49.746)" pers-center="0,0" pers-size="0,0" pers-start="0,0" pers-end="0,0" locked="0" mesh="" flag=""/>
            <path id="shapePath4" d="M-15.2276,-49.746 Z" style="stroke:#000000;stroke-opacity:1;stroke-width:0;stroke-linejoin:bevel;stroke-miterlimit:2;stroke-linecap:square;fill-rule:evenodd;fill:#fb0007;fill-opacity:1;"/>
        </g>
        <g id="Shape5">
            <desc type="2" basicInfo-basicType="0" basicInfo-roundedRectRadius="12" basicInfo-polygonSides="6" basicInfo-starPoints="5" bounding="rect(-106.5,-19,213,38)" text="Distributed By" font-familyName="Arial Black" font-pixelSize="20" font-bold="0" font-underline="0" font-alignment="1" strokeStyle="0" markerStart="0" markerEnd="0" shadowEnabled="0" shadowOffsetX="0" shadowOffsetY="2" shadowBlur="4" shadowOpacity="160" blurEnabled="0" blurRadius="4" transform="matrix(1,0,0,1,142.197,18.2373)" pers-center="0,0" pers-size="0,0" pers-start="0,0" pers-end="0,0" locked="0" mesh="" flag=""/>
            <path id="shapePath5" d="M66.0173,10.9209 L72.5896,10.9209 C73.8852,10.9209 74.9317,11.0967 75.7292,11.4482 C76.5268,11.7998 77.1859,12.3044 77.7068,12.9619 C78.2276,13.6195 78.6052,14.3844 78.8396,15.2568 C79.074,16.1292 79.1911,17.0537 79.1911,18.0303 C79.1911,19.5602 79.017,20.7467 78.6687,21.5898 C78.3204,22.4329 77.837,23.1393 77.2185,23.709 C76.6,24.2786 75.9359,24.6579 75.2263,24.8467 C74.2562,25.1071 73.3773,25.2373 72.5896,25.2373 L66.0173,25.2373 L66.0173,10.9209 M70.4411,14.1631 L70.4411,21.9853 L71.5251,21.9853 C72.4496,21.9853 73.1072,21.8828 73.4978,21.6777 C73.8884,21.4727 74.1944,21.1146 74.4158,20.6035 C74.6371,20.0924 74.7478,19.264 74.7478,18.1182 C74.7478,16.6012 74.5004,15.5628 74.0056,15.0029 C73.5108,14.443 72.6905,14.1631 71.5447,14.1631 L70.4411,14.1631 M81.3884,10.9209 L85.363,10.9209 L85.363,13.626 L81.3884,13.626 L81.3884,10.9209 M81.3884,14.8662 L85.363,14.8662 L85.363,25.2373 L81.3884,25.2373 L81.3884,14.8662 M87.1951,22.3662 L91.1404,21.9951 C91.3031,22.4639 91.531,22.7992 91.824,23.001 C92.1169,23.2028 92.5076,23.3037 92.9958,23.3037 C93.5297,23.3037 93.9431,23.1898 94.2361,22.9619 C94.4639,22.7926 94.5779,22.5811 94.5779,22.3271 C94.5779,22.0407 94.4281,21.8193 94.1286,21.6631 C93.9138,21.5524 93.3441,21.4157 92.4197,21.2529 C91.0395,21.012 90.0808,20.7891 89.5437,20.584 C89.0066,20.3789 88.5541,20.0322 88.1863,19.5439 C87.8184,19.0557 87.6345,18.499 87.6345,17.874 C87.6345,17.1904 87.8331,16.6012 88.2302,16.1064 C88.6273,15.6116 89.1742,15.2422 89.8708,14.998 C90.5674,14.7539 91.5017,14.6318 92.6736,14.6318 C93.9106,14.6318 94.8236,14.7262 95.4128,14.915 C96.002,15.1038 96.4936,15.3968 96.8874,15.7939 C97.2813,16.1911 97.6085,16.7282 97.8689,17.4053 L94.0993,17.7764 C94.0017,17.4443 93.8389,17.2002 93.6111,17.0439 C93.2986,16.8356 92.921,16.7314 92.4783,16.7314 C92.029,16.7314 91.7019,16.8112 91.4968,16.9707 C91.2917,17.1302 91.1892,17.3239 91.1892,17.5518 C91.1892,17.8057 91.3194,17.9977 91.5798,18.1279 C91.8402,18.2581 92.4066,18.3753 93.279,18.4795 C94.6006,18.6292 95.5837,18.8376 96.2283,19.1045 C96.8728,19.3714 97.366,19.7523 97.7077,20.2471 C98.0495,20.7419 98.2204,21.2855 98.2204,21.8779 C98.2204,22.4769 98.0398,23.0596 97.6785,23.626 C97.3171,24.1924 96.7475,24.6432 95.9695,24.9785 C95.1915,25.3138 94.1319,25.4814 92.7908,25.4814 C90.8962,25.4814 89.5469,25.2113 88.7429,24.6709 C87.9389,24.1305 87.4229,23.3623 87.1951,22.3662 M104.896,10.9209 L104.896,14.8662 L107.084,14.8662 L107.084,17.7666 L104.896,17.7666 L104.896,21.4482 C104.896,21.8909 104.939,22.1839 105.023,22.3271 C105.153,22.5485 105.381,22.6592 105.707,22.6592 C106,22.6592 106.41,22.5745 106.937,22.4053 L107.23,25.1494 C106.247,25.3643 105.329,25.4717 104.476,25.4717 C103.487,25.4717 102.758,25.3447 102.289,25.0908 C101.82,24.8369 101.473,24.4512 101.249,23.9336 C101.024,23.416 100.912,22.5778 100.912,21.4189 L100.912,17.7666 L99.447,17.7666 L99.447,14.8662 L100.912,14.8662 L100.912,12.9619 L104.896,10.9209 M109.015,14.8662 L112.736,14.8662 L112.736,16.5654 C113.094,15.8297 113.464,15.3236 113.844,15.0469 C114.225,14.7702 114.696,14.6318 115.256,14.6318 C115.842,14.6318 116.483,14.8141 117.179,15.1787 L115.949,18.0107 C115.48,17.8154 115.109,17.7178 114.836,17.7178 C114.315,17.7178 113.911,17.9326 113.625,18.3623 C113.215,18.9678 113.01,20.1006 113.01,21.7607 L113.01,25.2373 L109.015,25.2373 L109.015,14.8662 M117.998,10.9209 L121.972,10.9209 L121.972,13.626 L117.998,13.626 L117.998,10.9209 M117.998,14.8662 L121.972,14.8662 L121.972,25.2373 L117.998,25.2373 L117.998,14.8662 M124.527,10.9209 L128.541,10.9209 L128.541,15.8818 C128.938,15.4652 129.389,15.1527 129.893,14.9443 C130.398,14.736 130.956,14.6318 131.568,14.6318 C132.831,14.6318 133.876,15.0859 134.703,15.9941 C135.53,16.9023 135.943,18.2061 135.943,19.9053 C135.943,21.0381 135.754,22.0358 135.377,22.8984 C134.999,23.7611 134.477,24.4056 133.809,24.832 C133.142,25.2585 132.401,25.4717 131.588,25.4717 C130.891,25.4717 130.253,25.3219 129.674,25.0225 C129.237,24.7881 128.762,24.3486 128.248,23.7041 L128.248,25.2373 L124.527,25.2373 L124.527,10.9209 M128.511,20.0225 C128.511,20.9144 128.679,21.5605 129.014,21.9609 C129.35,22.3613 129.774,22.5615 130.289,22.5615 C130.764,22.5615 131.163,22.3646 131.485,21.9707 C131.807,21.5768 131.968,20.9144 131.968,19.9834 C131.968,19.1631 131.811,18.5609 131.495,18.1768 C131.179,17.7926 130.797,17.6006 130.347,17.6006 C129.807,17.6006 129.366,17.8008 129.024,18.2012 C128.682,18.6016 128.511,19.2087 128.511,20.0225 M148.763,25.2373 L145.052,25.2373 L145.052,23.5576 C144.499,24.2477 143.941,24.7393 143.378,25.0322 C142.815,25.3252 142.123,25.4717 141.302,25.4717 C140.209,25.4717 139.351,25.1445 138.729,24.4902 C138.107,23.8359 137.797,22.8284 137.797,21.4678 L137.797,14.8662 L141.791,14.8662 L141.791,20.5693 C141.791,21.2204 141.911,21.6826 142.152,21.9561 C142.393,22.2295 142.732,22.3662 143.168,22.3662 C143.643,22.3662 144.032,22.1839 144.335,21.8193 C144.637,21.4547 144.789,20.8005 144.789,19.8564 L144.789,14.8662 L148.763,14.8662 L148.763,25.2373 M155.959,10.9209 L155.959,14.8662 L158.146,14.8662 L158.146,17.7666 L155.959,17.7666 L155.959,21.4482 C155.959,21.8909 156.001,22.1839 156.086,22.3271 C156.216,22.5485 156.444,22.6592 156.769,22.6592 C157.062,22.6592 157.472,22.5745 158,22.4053 L158.293,25.1494 C157.31,25.3643 156.392,25.4717 155.539,25.4717 C154.549,25.4717 153.82,25.3447 153.351,25.0908 C152.883,24.8369 152.536,24.4512 152.311,23.9336 C152.087,23.416 151.974,22.5778 151.974,21.4189 L151.974,17.7666 L150.51,17.7666 L150.51,14.8662 L151.974,14.8662 L151.974,12.9619 L155.959,10.9209 M171.552,21.0381 L163.584,21.0381 C163.655,21.6761 163.828,22.1514 164.101,22.4639 C164.485,22.9131 164.987,23.1377 165.605,23.1377 C165.996,23.1377 166.367,23.04 166.718,22.8447 C166.933,22.721 167.164,22.5029 167.412,22.1904 L171.328,22.5518 C170.729,23.5934 170.006,24.3405 169.16,24.793 C168.314,25.2454 167.099,25.4717 165.517,25.4717 C164.144,25.4717 163.063,25.278 162.275,24.8906 C161.487,24.5033 160.835,23.888 160.317,23.0449 C159.8,22.2018 159.541,21.2106 159.541,20.0713 C159.541,18.4502 160.06,17.1383 161.098,16.1357 C162.137,15.1331 163.571,14.6318 165.4,14.6318 C166.885,14.6318 168.056,14.8564 168.916,15.3057 C169.775,15.7549 170.429,16.4059 170.879,17.2588 C171.328,18.1117 171.552,19.2217 171.552,20.5889 L171.552,21.0381 M167.51,19.1338 C167.431,18.3656 167.225,17.8154 166.889,17.4834 C166.554,17.1514 166.113,16.9853 165.566,16.9853 C164.935,16.9853 164.43,17.236 164.052,17.7373 C163.812,18.0498 163.659,18.5153 163.593,19.1338 L167.51,19.1338 M184.285,10.9209 L184.285,25.2373 L180.564,25.2373 L180.564,23.7041 C180.043,24.3551 179.568,24.7946 179.138,25.0225 C178.565,25.3219 177.927,25.4717 177.224,25.4717 C175.812,25.4717 174.732,24.9346 173.987,23.8603 C173.242,22.7861 172.869,21.4808 172.869,19.9443 C172.869,18.2256 173.281,16.9105 174.104,15.999 C174.928,15.0876 175.974,14.6318 177.244,14.6318 C177.862,14.6318 178.424,14.736 178.928,14.9443 C179.433,15.1527 179.881,15.4652 180.271,15.8818 L180.271,10.9209 L184.285,10.9209 M180.301,20.0225 C180.301,19.2087 180.128,18.6016 179.783,18.2012 C179.438,17.8008 179.002,17.6006 178.474,17.6006 C178.012,17.6006 177.625,17.7926 177.312,18.1768 C177,18.5609 176.843,19.2054 176.843,20.1103 C176.843,20.9567 177.005,21.5768 177.327,21.9707 C177.649,22.3646 178.048,22.5615 178.523,22.5615 C179.031,22.5615 179.454,22.363 179.793,21.9658 C180.131,21.5687 180.301,20.9209 180.301,20.0225 M193.625,10.9209 L201.906,10.9209 C203.286,10.9209 204.346,11.2627 205.085,11.9463 C205.824,12.6299 206.193,13.4762 206.193,14.4853 C206.193,15.3317 205.929,16.0576 205.402,16.6631 C205.051,17.0667 204.536,17.3857 203.859,17.6201 C204.888,17.8675 205.645,18.2923 206.13,18.8945 C206.615,19.4967 206.857,20.2536 206.857,21.165 C206.857,21.9072 206.685,22.5745 206.34,23.167 C205.995,23.7594 205.523,24.2282 204.924,24.5732 C204.552,24.7881 203.993,24.9443 203.244,25.042 C202.248,25.1722 201.587,25.2373 201.261,25.2373 L193.625,25.2373 L193.625,10.9209 M198.088,16.5361 L200.011,16.5361 C200.702,16.5361 201.182,16.4173 201.452,16.1797 C201.722,15.9421 201.857,15.5986 201.857,15.1494 C201.857,14.7327 201.722,14.4072 201.452,14.1728 C201.182,13.9385 200.711,13.8213 200.041,13.8213 L198.088,13.8213 L198.088,16.5361 M198.088,22.1611 L200.343,22.1611 C201.105,22.1611 201.642,22.026 201.955,21.7559 C202.267,21.4857 202.424,21.1227 202.424,20.667 C202.424,20.2438 202.269,19.9036 201.96,19.6465 C201.65,19.3893 201.108,19.2607 200.334,19.2607 L198.088,19.2607 L198.088,22.1611 M207.746,14.8662 L211.945,14.8662 L214.084,21.7705 L216.066,14.8662 L219.982,14.8662 L215.871,25.9502 C215.402,27.2132 214.924,28.0661 214.435,28.5088 C213.745,29.1338 212.694,29.4463 211.281,29.4463 C210.708,29.4463 209.823,29.3682 208.625,29.2119 L208.312,26.4385 C208.885,26.6208 209.523,26.7119 210.226,26.7119 C210.695,26.7119 211.074,26.6045 211.364,26.3896 C211.654,26.1748 211.899,25.7907 212.101,25.2373 L207.746,14.8662 " style="stroke:none;fill-rule:nonzero;fill:#000000;fill-opacity:1;"/>
        </g>
        <g id="Shape6">
            <desc type="0" basicInfo-basicType="0" basicInfo-roundedRectRadius="12" basicInfo-polygonSides="6" basicInfo-starPoints="5" bounding="rect(-89.5359,-85.1816,179.072,170.363)" text="" font-familyName="" font-pixelSize="20" font-bold="0" font-underline="0" font-alignment="1" strokeStyle="0" markerStart="0" markerEnd="0" shadowEnabled="0" shadowOffsetX="0" shadowOffsetY="2" shadowBlur="4" shadowOpacity="160" blurEnabled="0" blurRadius="4" transform="matrix(0.294112,0,0,0.306558,39.8299,93.1867)" pers-center="0,0" pers-size="0,0" pers-start="0,0" pers-end="0,0" groupID="1" locked="0" mesh="" flag=""/>
            <path id="shapePath6" d="M56.0737,119.3 L39.8072,110.364 L23.5236,119.266 L26.6501,100.379 L13.4963,86.988 L31.695,84.2513 L39.8492,67.0737 L47.9701,84.2684 L66.1635,87.0435 L52.9837,100.407 L56.0737,119.3 Z" style="stroke:#000000;stroke-opacity:1;stroke-width:3;stroke-linejoin:bevel;stroke-miterlimit:2;stroke-linecap:square;fill-rule:nonzero;fill:#1b1ebc;fill-opacity:1;"/>
        </g>
        <g id="Shape7">
            <desc type="0" basicInfo-basicType="0" basicInfo-roundedRectRadius="12" basicInfo-polygonSides="6" basicInfo-starPoints="5" bounding="rect(-19.488,-30.1094,38.9761,60.2189)" text="" font-familyName="" font-pixelSize="20" font-bold="0" font-underline="0" font-alignment="1" strokeStyle="0" markerStart="0" markerEnd="0" shadowEnabled="0" shadowOffsetX="0" shadowOffsetY="2" shadowBlur="4" shadowOpacity="160" blurEnabled="0" blurRadius="4" transform="matrix(1,0,0,1,195.691,91.9801)" pers-center="0,0" pers-size="0,0" pers-start="0,0" pers-end="0,0" groupID="1" locked="0" mesh="" flag=""/>
            <path id="shapePath7" d="M195.711,61.8707 L191.015,85.0071 L176.203,85.0071 L188.125,99.3388 L183.549,122.09 L195.711,108.015 L207.834,122.09 L203.298,99.3388 L215.179,85.0071 L200.368,85.0071 L195.711,61.8707 Z" style="stroke:#000000;stroke-opacity:1;stroke-width:0;stroke-linejoin:bevel;stroke-miterlimit:2;stroke-linecap:square;fill-rule:evenodd;fill:#1b1cbc;fill-opacity:1;"/>
        </g>
        <g id="Shape8">
            <desc type="0" basicInfo-basicType="0" basicInfo-roundedRectRadius="12" basicInfo-polygonSides="6" basicInfo-starPoints="5" bounding="rect(-28.5287,-28.5786,57.0573,57.1572)" text="" font-familyName="" font-pixelSize="20" font-bold="0" font-underline="0" font-alignment="1" strokeStyle="0" markerStart="0" markerEnd="0" shadowEnabled="0" shadowOffsetX="0" shadowOffsetY="2" shadowBlur="4" shadowOpacity="160" blurEnabled="0" blurRadius="4" transform="matrix(1,0,0,1,39.8299,95.6522)" pers-center="0,0" pers-size="0,0" pers-start="0,0" pers-end="0,0" groupID="1" locked="0" mesh="" flag=""/>
            <path id="shapePath8" d="M68.3586,95.6522 C68.3586,79.9028 55.6391,67.122 39.9174,67.0737 C24.1957,67.0253 11.3982,79.7279 11.3018,95.4769 C11.2054,111.226 23.8463,124.085 39.5674,124.23 C55.2885,124.375 68.1635,111.751 68.3564,96.0029 " style="stroke:#000000;stroke-opacity:1;stroke-width:6;stroke-linejoin:bevel;stroke-miterlimit:2;stroke-linecap:square;fill:none;"/>
        </g>
        <g id="Shape9">
            <desc type="0" basicInfo-basicType="0" basicInfo-roundedRectRadius="12" basicInfo-polygonSides="6" basicInfo-starPoints="5" bounding="rect(-46.9973,-30.3766,93.9945,60.7532)" text="" font-familyName="" font-pixelSize="20" font-bold="0" font-underline="0" font-alignment="1" strokeStyle="0" markerStart="0" markerEnd="0" shadowEnabled="0" shadowOffsetX="0" shadowOffsetY="2" shadowBlur="4" shadowOpacity="160" blurEnabled="0" blurRadius="4" transform="matrix(1,0,0,1,126.038,99.8676)" pers-center="0,0" pers-size="0,0" pers-start="0,0" pers-end="0,0" groupID="1" locked="0" mesh="" flag=""/>
            <path id="shapePath9" d="M104.246,77.3362 C106.154,81.4157 107.108,86.6354 107.108,92.9952 C107.108,99.8781 106.017,105.6 103.835,110.16 C101.274,115.516 97.6217,118.194 92.8786,118.194 C88.449,118.194 84.9668,115.851 82.4319,111.165 C80.1714,106.646 79.0412,100.934 79.0412,94.0307 C79.0412,87.7964 80.0081,82.4617 81.9419,78.0266 C84.4246,72.3362 88.0962,69.491 92.957,69.491 C98.0398,69.491 101.803,72.1061 104.246,77.3362 M100.807,106.693 C102.342,102.749 103.11,98.2149 103.11,93.0893 C103.11,87.6709 102.224,83.309 100.454,80.0036 C98.6833,76.6981 96.2628,75.0454 93.1922,75.0454 C90.213,75.0454 87.7827,76.6824 85.9011,79.9565 C84.0195,83.2306 83.0787,88.058 83.0787,94.4387 C83.0787,99.5434 83.8856,103.848 85.4993,107.352 C87.113,110.856 89.7296,112.608 93.349,112.608 C96.7854,112.608 99.2713,110.636 100.807,106.693 M124.247,109.737 C125.338,107.53 125.884,104.23 125.884,99.8362 C125.884,97.1584 125.642,94.8571 125.158,92.9324 C124.244,89.2295 122.571,87.378 120.141,87.378 C117.698,87.378 116.025,89.3341 115.123,93.2463 C114.64,95.3383 114.398,97.9952 114.398,101.217 C114.398,103.811 114.64,106.018 115.123,107.838 C116.038,111.311 117.711,113.048 120.141,113.048 C121.787,113.048 123.156,111.944 124.247,109.737 M111.007,83.3927 L114.437,83.3927 L114.437,87.8487 C115.143,86.3216 115.914,85.1396 116.75,84.3027 C117.939,83.0475 119.337,82.4199 120.945,82.4199 C123.323,82.4199 125.341,83.8791 127.001,86.7975 C128.66,89.7159 129.49,93.8843 129.49,99.3028 C129.49,106.625 128.294,111.855 125.903,114.993 C124.388,116.981 122.624,117.974 120.611,117.974 C119.03,117.974 117.704,117.42 116.633,116.311 C116.005,115.684 115.306,114.606 114.535,113.079 L114.535,130.244 L111.007,130.244 L111.007,83.3927 M146.677,84.1615 C148.075,85.2807 149.14,86.7295 149.871,88.5077 C150.577,90.2023 151.047,92.1793 151.282,94.4387 C151.492,95.9869 151.596,98.4555 151.596,101.845 L136.21,101.845 C136.276,105.255 136.779,107.99 137.719,110.051 C138.66,112.111 140.117,113.142 142.09,113.142 C143.933,113.142 145.403,112.169 146.5,110.223 C147.127,109.094 147.572,107.786 147.833,106.301 L151.302,106.301 C151.211,107.535 150.907,108.91 150.391,110.427 C149.875,111.944 149.296,113.184 148.656,114.146 C147.585,115.82 146.258,116.949 144.677,117.535 C143.828,117.87 142.868,118.037 141.796,118.037 C139.183,118.037 136.968,116.515 135.152,113.471 C133.336,110.427 132.428,106.165 132.428,100.684 C132.428,95.286 133.342,90.9031 135.172,87.535 C137.001,84.1667 139.392,82.4827 142.345,82.4827 C143.835,82.4827 145.278,83.0423 146.677,84.1615 M147.97,97.3571 C147.826,94.9094 147.493,92.9534 146.971,91.4889 C146.004,88.7693 144.39,87.4094 142.129,87.4094 C140.509,87.4094 139.15,88.3456 138.053,90.218 C136.955,92.0904 136.374,94.4701 136.308,97.3571 L147.97,97.3571 M155.925,83.2358 L159.277,83.2358 L159.277,88.0057 C160.27,86.0391 161.322,84.627 162.432,83.7693 C163.543,82.9115 164.778,82.4827 166.137,82.4827 C169.116,82.4827 171.128,84.1459 172.173,87.4722 C172.748,89.2923 173.036,91.8969 173.036,95.286 L173.036,116.845 L169.449,116.845 L169.449,95.6626 C169.449,93.6124 169.26,91.9596 168.881,90.7044 C168.253,88.6124 167.117,87.5663 165.47,87.5663 C164.634,87.5663 163.948,87.7023 163.412,87.9743 C162.445,88.4346 161.596,89.355 160.864,90.7358 C160.276,91.8446 159.894,92.99 159.718,94.172 C159.541,95.354 159.453,97.0433 159.453,99.2399 L159.453,116.845 L155.925,116.845 L155.925,83.2358 " style="stroke:#000000;stroke-opacity:1;stroke-width:0;stroke-linejoin:bevel;stroke-miterlimit:2;stroke-linecap:square;fill-rule:evenodd;fill:#000000;fill-opacity:1;"/>
        </g>
        <g id="Shape10">
            <desc type="0" basicInfo-basicType="0" basicInfo-roundedRectRadius="12" basicInfo-polygonSides="6" basicInfo-starPoints="5" bounding="rect(-35.5994,-24.3043,71.1989,48.6087)" text="" font-familyName="" font-pixelSize="20" font-bold="0" font-underline="0" font-alignment="1" strokeStyle="0" markerStart="0" markerEnd="0" shadowEnabled="0" shadowOffsetX="0" shadowOffsetY="2" shadowBlur="4" shadowOpacity="160" blurEnabled="0" blurRadius="4" transform="matrix(1,0,0,1,253.099,94.3956)" pers-center="0,0" pers-size="0,0" pers-start="0,0" pers-end="0,0" groupID="1" locked="0" mesh="" flag=""/>
            <path id="shapePath10" d="M221.166,102.476 C221.258,105.091 221.643,107.215 222.323,108.847 C223.616,111.901 225.896,113.428 229.163,113.428 C230.626,113.428 231.959,113.093 233.161,112.424 C235.487,111.127 236.65,108.805 236.65,105.457 C236.65,102.947 236.16,101.158 235.18,100.091 C234.187,99.0452 232.632,98.1352 230.515,97.3612 L226.615,95.9491 C224.067,95.0285 222.264,94.0139 221.205,92.9051 C219.376,90.9804 218.461,88.1038 218.461,84.2754 C218.461,80.1331 219.356,76.7335 221.147,74.0767 C222.937,71.4198 225.472,70.0913 228.751,70.0913 C231.77,70.0913 234.334,71.2576 236.444,73.5902 C238.554,75.9229 239.609,79.652 239.609,84.7775 L235.944,84.7775 C235.748,82.3089 235.33,80.4155 234.69,79.0975 C233.501,76.6917 231.482,75.4888 228.634,75.4888 C226.334,75.4888 224.681,76.2628 223.675,77.811 C222.669,79.3591 222.166,81.1582 222.166,83.2085 C222.166,85.4678 222.754,87.1206 223.93,88.1666 C224.701,88.8361 226.445,89.6729 229.163,90.6771 L233.2,92.152 C235.147,92.8632 236.65,93.8361 237.708,95.0704 C239.538,97.2252 240.452,100.353 240.452,104.453 C240.452,109.558 239.293,113.208 236.973,115.405 C234.654,117.602 231.959,118.7 228.888,118.7 C225.308,118.7 222.505,117.236 220.48,114.307 C218.455,111.399 217.462,107.455 217.501,102.476 L221.166,102.476 M245.622,74.3591 L249.189,74.3591 L249.189,83.7419 L252.54,83.7419 L252.54,88.3549 L249.189,88.3549 L249.189,110.29 C249.189,111.462 249.437,112.246 249.934,112.644 C250.208,112.874 250.665,112.989 251.306,112.989 C251.476,112.989 251.659,112.984 251.854,112.973 C252.051,112.963 252.279,112.936 252.54,112.895 L252.54,117.351 C252.135,117.539 251.714,117.675 251.276,117.759 C250.839,117.842 250.365,117.884 249.855,117.884 C248.209,117.884 247.092,117.21 246.504,115.86 C245.916,114.511 245.622,112.759 245.622,110.604 L245.622,88.3549 L242.78,88.3549 L242.78,83.7419 L245.622,83.7419 L245.622,74.3591 M259.89,112.267 C260.634,113.208 261.516,113.679 262.536,113.679 C263.777,113.679 264.979,113.219 266.142,112.298 C268.102,110.771 269.082,108.271 269.082,104.798 L269.082,100.248 C268.651,100.688 268.095,101.054 267.416,101.347 C266.736,101.639 266.07,101.849 265.417,101.974 L263.28,102.414 C262,102.685 261.039,103.114 260.399,103.7 C259.315,104.683 258.772,106.252 258.772,108.407 C258.772,110.039 259.145,111.326 259.89,112.267 M267.318,96.9846 C268.128,96.8172 268.67,96.2733 268.945,95.3528 C269.101,94.8507 269.18,94.1289 269.18,93.1875 C269.18,91.2628 268.752,89.8664 267.896,88.9982 C267.04,88.13 265.815,87.6959 264.221,87.6959 C262.379,87.6959 261.072,88.4909 260.301,90.0808 C259.87,90.9595 259.589,92.267 259.458,94.0034 L256.166,94.0034 C256.231,89.8612 257.07,86.9794 258.684,85.358 C260.298,83.7367 262.17,82.926 264.3,82.926 C266.769,82.926 268.775,83.6792 270.317,85.1854 C271.845,86.6917 272.61,89.0348 272.61,92.2147 L272.61,111.577 C272.61,112.162 272.685,112.633 272.835,112.989 C272.985,113.344 273.302,113.522 273.786,113.522 C273.943,113.522 274.119,113.507 274.315,113.475 C274.511,113.444 274.72,113.397 274.942,113.334 L274.942,117.508 C274.393,117.759 273.975,117.916 273.688,117.978 C273.4,118.041 273.008,118.072 272.512,118.072 C271.297,118.072 270.415,117.382 269.866,116.001 C269.578,115.269 269.376,114.234 269.258,112.895 C268.54,114.401 267.507,115.708 266.161,116.817 C264.816,117.926 263.333,118.48 261.712,118.48 C259.765,118.48 258.175,117.534 256.94,115.64 C255.705,113.747 255.088,111.378 255.088,108.533 C255.088,105.416 255.695,102.999 256.91,101.284 C258.126,99.5683 259.72,98.5118 261.693,98.1143 L267.318,96.9846 M278.487,83.7419 L281.839,83.7419 L281.839,89.5474 C282.113,88.4177 282.786,87.0421 283.858,85.4208 C284.929,83.7995 286.164,82.9888 287.562,82.9888 C287.627,82.9888 287.738,82.9992 287.895,83.0202 C288.052,83.0411 288.32,83.0829 288.699,83.1457 L288.699,89.108 C288.49,89.0452 288.297,89.0034 288.121,88.9825 C287.944,88.9616 287.751,88.9511 287.542,88.9511 C285.765,88.9511 284.4,89.8664 283.446,91.6969 C282.492,93.5275 282.015,95.6352 282.015,98.0202 L282.015,117.351 L278.487,117.351 L278.487,83.7419 " style="stroke:#000000;stroke-opacity:1;stroke-width:0;stroke-linejoin:bevel;stroke-miterlimit:2;stroke-linecap:square;fill-rule:evenodd;fill:#000000;fill-opacity:1;"/>
        </g>
    </g>
</svg>
