<?xml version="1.0"?>
<svg version="1.1" xmlns="http://www.w3.org/2000/svg" xmlns:xlink="http://www.w3.org/1999/xlink" width="300" height="180">
    <desc iVinci="yes" version="4.4" gridStep="20" showGrid="no" snapToGrid="no" codePlatform="0"/>
    <g id="Layer1">
        <g id="Shape1">
            <desc type="0" basicInfo-basicType="1" basicInfo-roundedRectRadius="12" basicInfo-polygonSides="6" basicInfo-starPoints="5" bounding="rect(-49.5809,-70.2874,99.1617,140.576)" text="" font-familyName="Silom" font-pixelSize="34" font-bold="0" font-underline="0" font-alignment="1" strokeStyle="0" markerStart="0" markerEnd="0" shadowEnabled="0" shadowOffsetX="0" shadowOffsetY="2" shadowBlur="4" shadowOpacity="160" blurEnabled="0" blurRadius="4" transform="matrix(0.988285,0,0,0.927053,150,114.839)" pers-center="0,0" pers-size="0,0" pers-start="0,0" pers-end="0,0" locked="0" mesh="" flag=""/>
            <path id="shapePath1" d="M101,49.6789 L199,49.6789 L199,180 L101,180 L101,49.6789 Z" style="stroke:none;fill-rule:evenodd;fill:#2c023a;fill-opacity:1;"/>
        </g>
        <g id="Shape2">
            <desc type="2" basicInfo-basicType="0" basicInfo-roundedRectRadius="12" basicInfo-polygonSides="6" basicInfo-starPoints="5" bounding="rect(-26.5,-33,53,66)" text="7" font-familyName="Snell Roundhand" font-pixelSize="130" font-bold="1" font-underline="0" font-alignment="1" strokeStyle="0" markerStart="0" markerEnd="0" shadowEnabled="0" shadowOffsetX="0" shadowOffsetY="2" shadowBlur="4" shadowOpacity="160" blurEnabled="0" blurRadius="4" transform="matrix(1,0,0,1,138.742,88.0561)" pers-center="0,0" pers-size="0,0" pers-start="0,0" pers-end="0,0" locked="0" mesh="" flag=""/>
            <path id="shapePath2" d="M135.181,53.753 L129.721,64.023 L130.241,64.153 C131.455,63.113 132.625,62.1813 133.751,61.358 C134.878,60.5346 136.091,59.863 137.391,59.343 C139.731,58.2163 142.505,57.653 145.711,57.653 C147.618,57.653 149.525,57.9346 151.431,58.498 C153.338,59.0613 155.245,59.6896 157.151,60.383 C159.058,61.0763 160.943,61.7046 162.806,62.268 C164.67,62.8313 166.511,63.113 168.331,63.113 C170.758,63.113 173.011,62.593 175.091,61.553 C177.171,60.513 179.078,59.213 180.811,57.653 L181.721,58.303 C171.061,72.1696 160.596,86.058 150.326,99.968 C140.056,113.878 130.155,128.156 120.621,142.803 L104.241,143.973 L175.611,64.153 L175.091,63.893 C172.145,65.8863 169.436,67.5113 166.966,68.768 C164.496,70.0246 161.441,70.653 157.801,70.653 C155.808,70.653 153.75,70.3713 151.626,69.808 C149.503,69.2446 147.401,68.6163 145.321,67.923 C143.241,67.2296 141.291,66.6013 139.471,66.038 C137.651,65.4746 136.005,65.193 134.531,65.193 C131.585,65.193 129.483,65.8213 128.226,67.078 C126.97,68.3346 126.016,69.7213 125.366,71.238 C124.716,72.7546 124.153,74.1413 123.676,75.398 C123.2,76.6546 122.268,77.283 120.881,77.283 C120.448,77.283 120.015,77.1096 119.581,76.763 C119.148,76.4163 118.931,75.983 118.931,75.463 C118.931,74.163 119.776,72.8413 121.466,71.498 C123.156,70.1546 124.868,68.703 126.601,67.143 C127.035,66.7963 127.555,66.0813 128.161,64.998 C128.768,63.9146 129.44,62.6796 130.176,61.293 C130.913,59.9063 131.628,58.498 132.321,57.068 C133.015,55.638 133.665,54.403 134.271,53.363 L135.181,53.753 Z" style="stroke:none;fill-rule:nonzero;fill:#fff5df;fill-opacity:1;"/>
        </g>
        <g id="Shape3">
            <desc type="2" basicInfo-basicType="0" basicInfo-roundedRectRadius="12" basicInfo-polygonSides="6" basicInfo-starPoints="5" bounding="rect(-24.5,-16.5,49,33)" text="th" font-familyName="Snell Roundhand" font-pixelSize="70" font-bold="0" font-underline="0" font-alignment="1" strokeStyle="0" markerStart="0" markerEnd="0" shadowEnabled="0" shadowOffsetX="0" shadowOffsetY="2" shadowBlur="4" shadowOpacity="160" blurEnabled="0" blurRadius="4" transform="matrix(1,0,0,1,161.273,121.661)" pers-center="0,0" pers-size="0,0" pers-start="0,0" pers-end="0,0" locked="0" mesh="" flag=""/>
            <path id="shapePath3" d="M156.727,110.539 L151.197,118.659 L160.437,118.659 L160.017,119.499 L150.637,119.499 C148.771,122.532 147.102,125.157 145.632,127.374 C144.162,129.591 142.926,131.504 141.922,133.114 C140.919,134.724 140.161,136.077 139.647,137.174 C139.134,138.271 138.877,139.239 138.877,140.079 C138.877,140.966 139.181,141.584 139.787,141.934 C140.394,142.284 141.094,142.459 141.887,142.459 C143.567,142.459 145.422,141.817 147.452,140.534 C149.482,139.251 151.501,137.676 153.507,135.809 C155.514,133.942 157.427,131.959 159.247,129.859 C161.067,127.759 162.607,125.869 163.867,124.189 L164.287,124.469 C162.701,126.476 160.962,128.587 159.072,130.804 C157.182,133.021 155.234,135.051 153.227,136.894 C151.221,138.737 149.202,140.266 147.172,141.479 C145.142,142.692 143.217,143.299 141.397,143.299 C139.951,143.299 138.702,142.856 137.652,141.969 C136.602,141.082 136.077,139.846 136.077,138.259 C136.077,137.186 136.381,135.984 136.987,134.654 C137.594,133.324 138.387,131.889 139.367,130.349 C140.347,128.809 141.456,127.129 142.692,125.309 C143.929,123.489 145.201,121.552 146.507,119.499 L142.727,119.499 L143.147,118.659 L147.067,118.659 L152.527,110.539 L156.727,110.539 M187.24,94.2991 L162.46,131.119 L162.6,131.259 C163.534,130.092 164.63,128.751 165.89,127.234 C167.15,125.717 168.515,124.282 169.985,122.929 C171.455,121.576 173.007,120.432 174.641,119.499 C176.274,118.566 177.907,118.099 179.54,118.099 C182.387,118.099 183.811,119.522 183.811,122.369 C183.811,123.116 183.542,124.002 183.005,125.029 C182.469,126.056 181.792,127.141 180.975,128.284 C180.159,129.427 179.284,130.582 178.35,131.749 C177.417,132.916 176.542,134.047 175.725,135.144 C174.909,136.241 174.232,137.267 173.695,138.224 C173.159,139.181 172.891,139.986 172.891,140.639 C172.891,141.152 173.042,141.584 173.345,141.934 C173.649,142.284 174.057,142.459 174.57,142.459 C175.644,142.459 176.822,142.121 178.105,141.444 C179.389,140.767 180.719,139.881 182.095,138.784 C183.472,137.687 184.837,136.462 186.19,135.109 C187.544,133.756 188.792,132.414 189.936,131.084 C191.079,129.754 192.105,128.494 193.016,127.304 C193.925,126.114 194.59,125.146 195.01,124.399 L195.43,124.539 C194.917,125.426 194.194,126.499 193.26,127.759 C192.327,129.019 191.266,130.349 190.076,131.749 C188.885,133.149 187.602,134.537 186.225,135.914 C184.849,137.291 183.472,138.527 182.095,139.624 C180.719,140.721 179.354,141.607 178,142.284 C176.647,142.961 175.387,143.299 174.22,143.299 C173.007,143.299 172.016,142.926 171.245,142.179 C170.475,141.432 170.09,140.406 170.09,139.099 C170.09,138.166 170.359,137.139 170.895,136.019 C171.432,134.899 172.109,133.767 172.925,132.624 C173.742,131.481 174.617,130.337 175.55,129.194 C176.484,128.051 177.359,126.966 178.175,125.939 C178.992,124.912 179.669,123.967 180.205,123.104 C180.742,122.241 181.01,121.506 181.01,120.899 C181.01,120.152 180.8,119.639 180.38,119.359 C179.96,119.079 179.447,118.939 178.84,118.939 C177.674,118.939 176.379,119.371 174.955,120.234 C173.532,121.097 172.062,122.229 170.546,123.629 C169.029,125.029 167.524,126.604 166.031,128.354 C164.537,130.104 163.125,131.866 161.796,133.639 C160.465,135.412 159.299,137.092 158.296,138.679 C157.292,140.266 156.51,141.619 155.951,142.739 L151.4,142.739 C153.967,138.726 156.604,134.642 159.311,130.489 C162.017,126.336 164.712,122.206 167.395,118.099 C170.079,113.992 172.704,109.944 175.27,105.954 C177.837,101.964 180.264,98.1491 182.55,94.5091 L187.24,94.2991 " style="stroke:none;fill-rule:nonzero;fill:#fff5df;fill-opacity:1;"/>
        </g>
        <g id="Shape4">
            <desc type="2" basicInfo-basicType="0" basicInfo-roundedRectRadius="12" basicInfo-polygonSides="6" basicInfo-starPoints="5" bounding="rect(-41.8834,-15.4244,83.7668,30.8488)" text="CODE" font-familyName="Silom" font-pixelSize="35" font-bold="0" font-underline="0" font-alignment="1" strokeStyle="0" markerStart="0" markerEnd="0" shadowEnabled="0" shadowOffsetX="0" shadowOffsetY="2" shadowBlur="4" shadowOpacity="160" blurEnabled="0" blurRadius="4" transform="matrix(1,0,0,1,149.14,165.475)" pers-center="0,0" pers-size="0,0" pers-start="0,0" pers-end="0,0" locked="0" mesh="" flag=""/>
            <path id="shapePath4" d="M124.342,170.771 C124.109,174.667 122.172,176.616 118.532,176.616 L112.687,176.616 C111.1,176.616 109.729,176.044 108.574,174.901 C107.419,173.757 106.842,172.381 106.842,170.771 L106.842,156.211 C106.842,154.624 107.408,153.253 108.539,152.098 C109.671,150.943 111.054,150.366 112.687,150.366 L118.532,150.366 C122.195,150.366 124.132,152.314 124.342,156.211 L121.437,156.211 C121.204,154.251 120.235,153.271 118.532,153.271 L115.592,153.271 C114.799,153.271 114.116,153.556 113.544,154.128 C112.973,154.7 112.687,155.394 112.687,156.211 L112.687,170.771 C112.687,171.564 112.973,172.252 113.544,172.836 C114.116,173.419 114.799,173.711 115.592,173.711 L118.532,173.711 C120.259,173.711 121.227,172.731 121.437,170.771 L124.342,170.771 M136.031,150.366 L141.876,150.366 C143.462,150.366 144.827,150.943 145.971,152.098 C147.114,153.253 147.686,154.624 147.686,156.211 L147.686,170.771 C147.686,172.357 147.114,173.728 145.971,174.883 C144.827,176.038 143.462,176.616 141.876,176.616 L136.031,176.616 C134.444,176.616 133.073,176.044 131.918,174.901 C130.763,173.757 130.186,172.381 130.186,170.771 L130.186,156.211 C130.186,154.601 130.763,153.224 131.918,152.081 C133.073,150.937 134.444,150.366 136.031,150.366 M136.031,156.211 L136.031,170.771 C136.031,171.564 136.316,172.252 136.888,172.836 C137.46,173.419 138.142,173.711 138.936,173.711 C139.752,173.711 140.446,173.419 141.018,172.836 C141.59,172.252 141.876,171.564 141.876,170.771 L141.876,156.211 C141.876,155.394 141.59,154.7 141.018,154.128 C140.446,153.556 139.752,153.271 138.936,153.271 C138.142,153.271 137.46,153.556 136.888,154.128 C136.316,154.7 136.031,155.394 136.031,156.211 M153.529,176.616 L153.529,150.366 L165.219,150.366 C166.806,150.366 168.171,150.943 169.314,152.098 C170.458,153.253 171.029,154.624 171.029,156.211 L171.029,170.771 C171.029,172.357 170.458,173.728 169.314,174.883 C168.171,176.038 166.806,176.616 165.219,176.616 L153.529,176.616 M159.374,173.711 L162.279,173.711 C163.096,173.711 163.79,173.419 164.362,172.836 C164.934,172.252 165.219,171.564 165.219,170.771 L165.219,156.211 C165.219,155.394 164.934,154.7 164.362,154.128 C163.79,153.556 163.096,153.271 162.279,153.271 L159.374,153.271 L159.374,173.711 M176.873,176.616 L176.873,150.366 L191.468,150.366 L191.468,153.271 L182.718,153.271 L182.718,162.021 L188.563,162.021 L188.563,164.961 L182.718,164.961 L182.718,173.711 L191.468,173.711 L191.468,176.616 L176.873,176.616 " style="stroke:none;fill-rule:nonzero;fill:#fff5df;fill-opacity:1;"/>
        </g>
        <g id="Shape5">
            <desc type="0" basicInfo-basicType="1" basicInfo-roundedRectRadius="12" basicInfo-polygonSides="6" basicInfo-starPoints="5" bounding="rect(-47.4997,-1.99979,94.9996,3.99957)" text="" font-familyName="Silom" font-pixelSize="33" font-bold="0" font-underline="0" font-alignment="1" strokeStyle="0" markerStart="0" markerEnd="0" shadowEnabled="0" shadowOffsetX="0" shadowOffsetY="2" shadowBlur="4" shadowOpacity="160" blurEnabled="0" blurRadius="4" transform="matrix(0.927362,0,0,0.455299,149.492,147.18)" pers-center="0,0" pers-size="0,0" pers-start="0,0" pers-end="0,0" locked="0" mesh="" flag=""/>
            <path id="shapePath5" d="M105.443,146.27 L193.542,146.27 L193.542,148.091 L105.443,148.091 L105.443,146.27 Z" style="stroke:none;fill-rule:evenodd;fill:#fff5df;fill-opacity:1;"/>
        </g>
        <g id="Shape6">
            <desc type="2" basicInfo-basicType="0" basicInfo-roundedRectRadius="12" basicInfo-polygonSides="6" basicInfo-starPoints="5" bounding="rect(-150,-23,300,46)" text="Developed By" font-familyName="Arial Black" font-pixelSize="20" font-bold="0" font-underline="0" font-alignment="1" strokeStyle="0" markerStart="0" markerEnd="0" shadowEnabled="0" shadowOffsetX="0" shadowOffsetY="2" shadowBlur="4" shadowOpacity="160" blurEnabled="0" blurRadius="4" transform="matrix(1,0,0,1,150,21.1582)" pers-center="0,0" pers-size="0,0" pers-start="0,0" pers-end="0,0" locked="0" mesh="" flag=""/>
            <path id="shapePath6" d="M77.6484,13.8418 L84.2207,13.8418 C85.5163,13.8418 86.5628,14.0176 87.3604,14.3691 C88.1579,14.7207 88.8171,15.2253 89.3379,15.8828 C89.8587,16.5404 90.2363,17.3053 90.4707,18.1777 C90.7051,19.0501 90.8223,19.9746 90.8223,20.9512 C90.8223,22.4811 90.6481,23.6676 90.2998,24.5107 C89.9515,25.3538 89.4681,26.0602 88.8496,26.6299 C88.2311,27.1995 87.5671,27.5788 86.8574,27.7676 C85.8874,28.028 85.0085,28.1582 84.2207,28.1582 L77.6484,28.1582 L77.6484,13.8418 M82.0723,17.084 L82.0723,24.9062 L83.1562,24.9062 C84.0807,24.9062 84.7383,24.8037 85.1289,24.5986 C85.5195,24.3936 85.8255,24.0355 86.0469,23.5244 C86.2682,23.0133 86.3789,22.1849 86.3789,21.0391 C86.3789,19.5221 86.1315,18.4837 85.6367,17.9238 C85.1419,17.3639 84.3216,17.084 83.1758,17.084 L82.0723,17.084 M104.387,23.959 L96.418,23.959 C96.4896,24.597 96.6621,25.0723 96.9355,25.3848 C97.3197,25.834 97.821,26.0586 98.4395,26.0586 C98.8301,26.0586 99.2012,25.9609 99.5527,25.7656 C99.7676,25.6419 99.9987,25.4238 100.246,25.1113 L104.162,25.4727 C103.563,26.5143 102.84,27.2614 101.994,27.7139 C101.148,28.1663 99.9336,28.3926 98.3516,28.3926 C96.9779,28.3926 95.8971,28.1989 95.1094,27.8115 C94.3216,27.4242 93.6689,26.8089 93.1514,25.9658 C92.6338,25.1227 92.375,24.1315 92.375,22.9922 C92.375,21.3711 92.8942,20.0592 93.9326,19.0566 C94.971,18.054 96.405,17.5527 98.2344,17.5527 C99.7188,17.5527 100.891,17.7773 101.75,18.2266 C102.609,18.6758 103.264,19.3268 103.713,20.1797 C104.162,21.0325 104.387,22.1426 104.387,23.5098 L104.387,23.959 M100.344,22.0547 C100.266,21.2865 100.059,20.7363 99.7236,20.4043 C99.3884,20.0723 98.9473,19.9062 98.4004,19.9062 C97.7689,19.9062 97.2643,20.1569 96.8867,20.6582 C96.6458,20.9707 96.4928,21.4362 96.4277,22.0547 L100.344,22.0547 M104.504,17.7871 L108.645,17.7871 L110.656,24.3594 L112.736,17.7871 L116.75,17.7871 L112.346,28.1582 L108.82,28.1582 L104.504,17.7871 M128.887,23.959 L120.918,23.959 C120.99,24.597 121.162,25.0723 121.436,25.3848 C121.82,25.834 122.321,26.0586 122.939,26.0586 C123.33,26.0586 123.701,25.9609 124.053,25.7656 C124.268,25.6419 124.499,25.4238 124.746,25.1113 L128.662,25.4727 C128.063,26.5143 127.34,27.2614 126.494,27.7139 C125.648,28.1663 124.434,28.3926 122.852,28.3926 C121.478,28.3926 120.397,28.1989 119.609,27.8115 C118.822,27.4242 118.169,26.8089 117.651,25.9658 C117.134,25.1227 116.875,24.1315 116.875,22.9922 C116.875,21.3711 117.394,20.0592 118.433,19.0566 C119.471,18.054 120.905,17.5527 122.734,17.5527 C124.219,17.5527 125.391,17.7773 126.25,18.2266 C127.109,18.6758 127.764,19.3268 128.213,20.1797 C128.662,21.0325 128.887,22.1426 128.887,23.5098 L128.887,23.959 M124.844,22.0547 C124.766,21.2865 124.559,20.7363 124.224,20.4043 C123.888,20.0723 123.447,19.9062 122.9,19.9062 C122.269,19.9062 121.764,20.1569 121.387,20.6582 C121.146,20.9707 120.993,21.4362 120.928,22.0547 L124.844,22.0547 M130.838,13.8418 L134.822,13.8418 L134.822,28.1582 L130.838,28.1582 L130.838,13.8418 M136.869,23.0019 C136.869,21.4199 137.403,20.1162 138.471,19.0908 C139.538,18.0654 140.98,17.5527 142.797,17.5527 C144.874,17.5527 146.443,18.1549 147.504,19.3594 C148.357,20.3294 148.783,21.5241 148.783,22.9434 C148.783,24.5384 148.254,25.8454 147.196,26.8643 C146.138,27.8831 144.675,28.3926 142.807,28.3926 C141.14,28.3926 139.792,27.9694 138.764,27.123 C137.501,26.0749 136.869,24.7012 136.869,23.0019 M140.854,22.9922 C140.854,23.9167 141.041,24.6003 141.415,25.043 C141.789,25.4857 142.26,25.707 142.826,25.707 C143.399,25.707 143.869,25.4889 144.237,25.0527 C144.605,24.6165 144.789,23.9167 144.789,22.9531 C144.789,22.0547 144.604,21.3857 144.232,20.9463 C143.861,20.5068 143.402,20.2871 142.855,20.2871 C142.276,20.2871 141.798,20.5101 141.42,20.9561 C141.042,21.402 140.854,22.0807 140.854,22.9922 M150.705,32.1035 L150.705,17.7871 L154.426,17.7871 L154.426,19.3203 C154.94,18.6758 155.412,18.2396 155.842,18.0117 C156.421,17.7057 157.062,17.5527 157.766,17.5527 C159.152,17.5527 160.225,18.0833 160.983,19.1445 C161.742,20.2057 162.121,21.5176 162.121,23.0801 C162.121,24.8053 161.708,26.1221 160.881,27.0303 C160.054,27.9385 159.009,28.3926 157.746,28.3926 C157.134,28.3926 156.576,28.2884 156.071,28.0801 C155.567,27.8717 155.116,27.5625 154.719,27.1523 L154.719,32.1035 L150.705,32.1035 M154.689,23.0019 C154.689,23.8223 154.862,24.431 155.207,24.8281 C155.552,25.2253 155.988,25.4238 156.516,25.4238 C156.978,25.4238 157.365,25.2334 157.678,24.8525 C157.99,24.4717 158.146,23.8255 158.146,22.9141 C158.146,22.0742 157.984,21.4574 157.658,21.0635 C157.333,20.6696 156.936,20.4727 156.467,20.4727 C155.959,20.4727 155.536,20.6712 155.197,21.0684 C154.859,21.4655 154.689,22.11 154.689,23.0019 M175.527,23.959 L167.559,23.959 C167.63,24.597 167.803,25.0723 168.076,25.3848 C168.46,25.834 168.962,26.0586 169.58,26.0586 C169.971,26.0586 170.342,25.9609 170.693,25.7656 C170.908,25.6419 171.139,25.4238 171.387,25.1113 L175.303,25.4727 C174.704,26.5143 173.981,27.2614 173.135,27.7139 C172.288,28.1663 171.074,28.3926 169.492,28.3926 C168.118,28.3926 167.038,28.1989 166.25,27.8115 C165.462,27.4242 164.81,26.8089 164.292,25.9658 C163.774,25.1227 163.516,24.1315 163.516,22.9922 C163.516,21.3711 164.035,20.0592 165.073,19.0566 C166.112,18.054 167.546,17.5527 169.375,17.5527 C170.859,17.5527 172.031,17.7773 172.891,18.2266 C173.75,18.6758 174.404,19.3268 174.854,20.1797 C175.303,21.0325 175.527,22.1426 175.527,23.5098 L175.527,23.959 M171.484,22.0547 C171.406,21.2865 171.2,20.7363 170.864,20.4043 C170.529,20.0723 170.088,19.9062 169.541,19.9062 C168.91,19.9062 168.405,20.1569 168.027,20.6582 C167.786,20.9707 167.633,21.4362 167.568,22.0547 L171.484,22.0547 M188.26,13.8418 L188.26,28.1582 L184.539,28.1582 L184.539,26.625 C184.018,27.276 183.543,27.7155 183.113,27.9434 C182.54,28.2428 181.902,28.3926 181.199,28.3926 C179.786,28.3926 178.707,27.8555 177.962,26.7812 C177.216,25.707 176.844,24.4017 176.844,22.8652 C176.844,21.1465 177.256,19.8314 178.079,18.9199 C178.903,18.0085 179.949,17.5527 181.219,17.5527 C181.837,17.5527 182.399,17.6569 182.903,17.8652 C183.408,18.0736 183.855,18.3861 184.246,18.8027 L184.246,13.8418 L188.26,13.8418 M184.275,22.9434 C184.275,22.1296 184.103,21.5225 183.758,21.1221 C183.413,20.7217 182.977,20.5215 182.449,20.5215 C181.987,20.5215 181.6,20.7135 181.287,21.0977 C180.975,21.4818 180.818,22.1263 180.818,23.0312 C180.818,23.8776 180.979,24.4977 181.302,24.8916 C181.624,25.2855 182.023,25.4824 182.498,25.4824 C183.006,25.4824 183.429,25.2838 183.768,24.8867 C184.106,24.4896 184.275,23.8418 184.275,22.9434 M197.6,13.8418 L205.881,13.8418 C207.261,13.8418 208.321,14.1836 209.06,14.8672 C209.799,15.5508 210.168,16.3971 210.168,17.4062 C210.168,18.2526 209.904,18.9785 209.377,19.584 C209.025,19.9876 208.511,20.3066 207.834,20.541 C208.863,20.7884 209.619,21.2132 210.104,21.8154 C210.59,22.4176 210.832,23.1745 210.832,24.0859 C210.832,24.8281 210.66,25.4954 210.314,26.0879 C209.969,26.6803 209.497,27.1491 208.898,27.4941 C208.527,27.709 207.967,27.8652 207.219,27.9629 C206.223,28.0931 205.562,28.1582 205.236,28.1582 L197.6,28.1582 L197.6,13.8418 M202.062,19.457 L203.986,19.457 C204.676,19.457 205.157,19.3382 205.427,19.1006 C205.697,18.863 205.832,18.5195 205.832,18.0703 C205.832,17.6536 205.697,17.3281 205.427,17.0937 C205.157,16.8594 204.686,16.7422 204.016,16.7422 L202.062,16.7422 L202.062,19.457 M202.062,25.082 L204.318,25.082 C205.08,25.082 205.617,24.9469 205.93,24.6768 C206.242,24.4066 206.398,24.0436 206.398,23.5879 C206.398,23.1647 206.244,22.8245 205.935,22.5674 C205.625,22.3102 205.083,22.1816 204.309,22.1816 L202.062,22.1816 L202.062,25.082 M211.721,17.7871 L215.92,17.7871 L218.059,24.6914 L220.041,17.7871 L223.957,17.7871 L219.846,28.8711 C219.377,30.1341 218.898,30.987 218.41,31.4297 C217.72,32.0547 216.669,32.3672 215.256,32.3672 C214.683,32.3672 213.798,32.2891 212.6,32.1328 L212.287,29.3594 C212.86,29.5417 213.498,29.6328 214.201,29.6328 C214.67,29.6328 215.049,29.5254 215.339,29.3105 C215.629,29.0957 215.874,28.7116 216.076,28.1582 L211.721,17.7871 " style="stroke:none;fill-rule:nonzero;fill:#000000;fill-opacity:1;"/>
        </g>
    </g>
</svg>
