<?xml version="1.0"?>
<svg version="1.1" xmlns="http://www.w3.org/2000/svg" xmlns:xlink="http://www.w3.org/1999/xlink" width="580" height="80">
    <desc iVinci="yes" version="4.4" gridStep="20" showGrid="no" snapToGrid="no" codePlatform="0"/>
    <g id="Layer1">
        <g id="Shape1">
            <desc type="0" basicInfo-basicType="4" basicInfo-roundedRectRadius="12" basicInfo-polygonSides="6" basicInfo-starPoints="5" bounding="rect(-46.5,-46.5,93,93)" text="" font-familyName="Helvetica" font-pixelSize="20" font-bold="0" font-underline="0" font-alignment="1" strokeStyle="0" markerStart="0" markerEnd="0" shadowEnabled="0" shadowOffsetX="0" shadowOffsetY="2" shadowBlur="4" shadowOpacity="160" blurEnabled="0" blurRadius="4" transform="matrix(0.799407,0,0,0.798771,144.988,39.889)" pers-center="0,0" pers-size="0,0" pers-start="0,0" pers-end="0,0" groupID="1" locked="0" mesh="" flag=""/>
            <path id="shapePath1" d="M107.816,39.889 C107.816,19.3755 124.458,2.74614 144.988,2.74614 C165.518,2.74614 182.16,19.3756 182.16,39.889 C182.16,60.4024 165.518,77.0318 144.988,77.0318 C124.458,77.0318 107.816,60.4024 107.816,39.889 Z" style="stroke:none;fill-rule:evenodd;fill:#fc7af6;fill-opacity:1;"/>
        </g>
        <g id="Shape2">
            <desc type="2" basicInfo-basicType="0" basicInfo-roundedRectRadius="12" basicInfo-polygonSides="6" basicInfo-starPoints="5" bounding="rect(-21.9837,-19.5699,43.9674,39.1398)" text="m" font-familyName="Arial Black" font-pixelSize="57" font-bold="1" font-underline="0" font-alignment="1" strokeStyle="0" markerStart="0" markerEnd="0" shadowEnabled="0" shadowOffsetX="0" shadowOffsetY="2" shadowBlur="4" shadowOpacity="160" blurEnabled="0" blurRadius="4" transform="matrix(1,0,0,1,144.994,34.4293)" pers-center="0,0" pers-size="0,0" pers-start="0,0" pers-end="0,0" groupID="1" locked="0" mesh="" flag=""/>
            <path id="shapePath2" d="M120.001,27.0279 L130.577,27.0279 L130.577,31.3419 C132.099,29.5421 133.634,28.2618 135.183,27.5011 C136.733,26.7403 138.602,26.36 140.791,26.36 C143.148,26.36 145.013,26.7775 146.386,27.6124 C147.759,28.4474 148.881,29.6905 149.753,31.3419 C151.535,29.4122 153.158,28.0995 154.624,27.4037 C156.09,26.7079 157.899,26.36 160.051,26.36 C163.224,26.36 165.701,27.3016 167.482,29.1849 C169.264,31.0682 170.154,34.0138 170.154,38.0216 L170.154,56.5856 L158.799,56.5856 L158.799,39.7472 C158.799,38.4112 158.539,37.4186 158.019,36.7691 C157.259,35.7486 156.312,35.2384 155.181,35.2384 C153.845,35.2384 152.768,35.7208 151.952,36.6857 C151.136,37.6505 150.727,39.1998 150.727,41.3336 L150.727,56.5856 L139.372,56.5856 L139.372,40.3038 C139.372,39.005 139.298,38.1236 139.149,37.6598 C138.908,36.9176 138.491,36.3192 137.897,35.8646 C137.303,35.41 136.607,35.1827 135.809,35.1827 C134.511,35.1827 133.444,35.6744 132.609,36.6578 C131.774,37.6412 131.356,39.2555 131.356,41.5006 L131.356,56.5856 L120.001,56.5856 L120.001,27.0279 Z" style="stroke:none;fill-rule:nonzero;fill:#ffffff;fill-opacity:1;"/>
        </g>
        <g id="Shape3">
            <desc type="0" basicInfo-basicType="4" basicInfo-roundedRectRadius="12" basicInfo-polygonSides="6" basicInfo-starPoints="5" bounding="rect(-46.5,-46.5,93,93)" text="" font-familyName="Helvetica" font-pixelSize="20" font-bold="0" font-underline="0" font-alignment="1" strokeStyle="0" markerStart="0" markerEnd="0" shadowEnabled="0" shadowOffsetX="0" shadowOffsetY="2" shadowBlur="4" shadowOpacity="160" blurEnabled="0" blurRadius="4" transform="matrix(0.799407,0,0,0.798771,224.965,39.889)" pers-center="0,0" pers-size="0,0" pers-start="0,0" pers-end="0,0" groupID="1" locked="0" mesh="" flag=""/>
            <path id="shapePath3" d="M187.793,39.889 C187.793,19.3755 204.435,2.74614 224.965,2.74614 C245.495,2.74614 262.138,19.3756 262.138,39.889 C262.138,60.4024 245.495,77.0318 224.965,77.0318 C204.435,77.0318 187.793,60.4024 187.793,39.889 Z" style="stroke:none;fill-rule:evenodd;fill:#91fc89;fill-opacity:1;"/>
        </g>
        <g id="Shape4">
            <desc type="2" basicInfo-basicType="0" basicInfo-roundedRectRadius="12" basicInfo-polygonSides="6" basicInfo-starPoints="5" bounding="rect(-21.9837,-19.5699,43.9674,39.1398)" text="o" font-familyName="Arial Black" font-pixelSize="59" font-bold="1" font-underline="0" font-alignment="1" strokeStyle="0" markerStart="0" markerEnd="0" shadowEnabled="0" shadowOffsetX="0" shadowOffsetY="2" shadowBlur="4" shadowOpacity="160" blurEnabled="0" blurRadius="4" transform="matrix(1,0,0,1,224.971,34.4293)" pers-center="0,0" pers-size="0,0" pers-start="0,0" pers-end="0,0" groupID="1" locked="0" mesh="" flag=""/>
            <path id="shapePath4" d="M207.402,42.5777 C207.402,37.9108 208.977,34.0648 212.127,31.0399 C215.277,28.015 219.531,26.5025 224.889,26.5025 C231.016,26.5025 235.644,28.2791 238.775,31.8321 C241.291,34.6938 242.549,38.218 242.549,42.4049 C242.549,47.1103 240.988,50.9658 237.867,53.9715 C234.747,56.9772 230.43,58.4801 224.918,58.4801 C220.001,58.4801 216.026,57.2317 212.991,54.735 C209.265,51.6428 207.402,47.5904 207.402,42.5777 M219.156,42.5489 C219.156,45.2761 219.708,47.2928 220.813,48.5987 C221.917,49.9047 223.305,50.5577 224.976,50.5577 C226.666,50.5577 228.053,49.9143 229.138,48.6275 C230.224,47.3408 230.766,45.2761 230.766,42.4337 C230.766,39.7833 230.219,37.8099 229.124,36.5135 C228.029,35.2171 226.675,34.569 225.062,34.569 C223.353,34.569 221.941,35.2267 220.827,36.5423 C219.713,37.8579 219.156,39.8601 219.156,42.5489 " style="stroke:none;fill-rule:nonzero;fill:#ffffff;fill-opacity:1;"/>
        </g>
        <g id="Shape5">
            <desc type="0" basicInfo-basicType="4" basicInfo-roundedRectRadius="12" basicInfo-polygonSides="6" basicInfo-starPoints="5" bounding="rect(-46.5,-46.5,93,93)" text="" font-familyName="Helvetica" font-pixelSize="20" font-bold="0" font-underline="0" font-alignment="1" strokeStyle="0" markerStart="0" markerEnd="0" shadowEnabled="0" shadowOffsetX="0" shadowOffsetY="2" shadowBlur="4" shadowOpacity="160" blurEnabled="0" blurRadius="4" transform="matrix(0.799407,0,0,0.798771,304.277,39.889)" pers-center="0,0" pers-size="0,0" pers-start="0,0" pers-end="0,0" groupID="1" locked="0" mesh="" flag=""/>
            <path id="shapePath5" d="M267.105,39.889 C267.105,19.3755 283.747,2.74614 304.277,2.74614 C324.807,2.74614 341.449,19.3756 341.449,39.889 C341.449,60.4024 324.807,77.0318 304.277,77.0318 C283.747,77.0318 267.105,60.4024 267.105,39.889 Z" style="stroke:none;fill-rule:evenodd;fill:#85c0fc;fill-opacity:1;"/>
        </g>
        <g id="Shape6">
            <desc type="2" basicInfo-basicType="0" basicInfo-roundedRectRadius="12" basicInfo-polygonSides="6" basicInfo-starPoints="5" bounding="rect(-21.9837,-19.5699,43.9674,39.1398)" text="n" font-familyName="Arial Black" font-pixelSize="57" font-bold="1" font-underline="0" font-alignment="1" strokeStyle="0" markerStart="0" markerEnd="0" shadowEnabled="0" shadowOffsetX="0" shadowOffsetY="2" shadowBlur="4" shadowOpacity="160" blurEnabled="0" blurRadius="4" transform="matrix(1,0,0,1,304.283,34.4293)" pers-center="0,0" pers-size="0,0" pers-start="0,0" pers-end="0,0" groupID="1" locked="0" mesh="" flag=""/>
            <path id="shapePath6" d="M288.706,27.0279 L299.255,27.0279 L299.255,31.8429 C300.832,29.8761 302.428,28.4706 304.042,27.6263 C305.656,26.7821 307.623,26.36 309.942,26.36 C313.078,26.36 315.532,27.2923 317.304,29.1571 C319.076,31.0218 319.962,33.9025 319.962,37.7989 L319.962,56.5856 L308.579,56.5856 L308.579,40.3316 C308.579,38.4762 308.235,37.1634 307.549,36.3934 C306.862,35.6234 305.897,35.2384 304.654,35.2384 C303.281,35.2384 302.168,35.7579 301.314,36.797 C300.461,37.836 300.034,39.7008 300.034,42.3912 L300.034,56.5856 L288.706,56.5856 L288.706,27.0279 Z" style="stroke:none;fill-rule:nonzero;fill:#ffffff;fill-opacity:1;"/>
        </g>
        <g id="Shape7">
            <desc type="0" basicInfo-basicType="4" basicInfo-roundedRectRadius="12" basicInfo-polygonSides="6" basicInfo-starPoints="5" bounding="rect(-46.5,-46.5,93,93)" text="" font-familyName="Helvetica" font-pixelSize="20" font-bold="0" font-underline="0" font-alignment="1" strokeStyle="0" markerStart="0" markerEnd="0" shadowEnabled="0" shadowOffsetX="0" shadowOffsetY="2" shadowBlur="4" shadowOpacity="160" blurEnabled="0" blurRadius="4" transform="matrix(0.799407,0,0,0.798771,542.828,39.889)" pers-center="0,0" pers-size="0,0" pers-start="0,0" pers-end="0,0" groupID="1" locked="0" mesh="" flag=""/>
            <path id="shapePath7" d="M505.655,39.889 C505.655,19.3755 522.298,2.74614 542.828,2.74614 C563.357,2.74614 580,19.3756 580,39.889 C580,60.4024 563.357,77.0318 542.828,77.0318 C522.298,77.0318 505.655,60.4024 505.655,39.889 Z" style="stroke:none;fill-rule:evenodd;fill:#9497fc;fill-opacity:1;"/>
        </g>
        <g id="Shape8">
            <desc type="2" basicInfo-basicType="0" basicInfo-roundedRectRadius="12" basicInfo-polygonSides="6" basicInfo-starPoints="5" bounding="rect(-21.9837,-19.5699,43.9674,39.1398)" text="n" font-familyName="Arial Black" font-pixelSize="57" font-bold="1" font-underline="0" font-alignment="1" strokeStyle="0" markerStart="0" markerEnd="0" shadowEnabled="0" shadowOffsetX="0" shadowOffsetY="2" shadowBlur="4" shadowOpacity="160" blurEnabled="0" blurRadius="4" transform="matrix(1,0,0,1,542.834,34.4293)" pers-center="0,0" pers-size="0,0" pers-start="0,0" pers-end="0,0" groupID="1" locked="0" mesh="" flag=""/>
            <path id="shapePath8" d="M527.257,27.0279 L537.805,27.0279 L537.805,31.8429 C539.382,29.8761 540.978,28.4706 542.592,27.6263 C544.207,26.7821 546.173,26.36 548.493,26.36 C551.629,26.36 554.082,27.2923 555.854,29.1571 C557.626,31.0218 558.512,33.9025 558.512,37.7989 L558.512,56.5856 L547.129,56.5856 L547.129,40.3316 C547.129,38.4762 546.786,37.1634 546.099,36.3934 C545.413,35.6234 544.448,35.2384 543.205,35.2384 C541.832,35.2384 540.718,35.7579 539.865,36.797 C539.011,37.836 538.585,39.7008 538.585,42.3912 L538.585,56.5856 L527.257,56.5856 L527.257,27.0279 Z" style="stroke:none;fill-rule:nonzero;fill:#ffffff;fill-opacity:1;"/>
        </g>
        <g id="Shape9">
            <desc type="0" basicInfo-basicType="4" basicInfo-roundedRectRadius="12" basicInfo-polygonSides="6" basicInfo-starPoints="5" bounding="rect(-46.5,-46.5,93,93)" text="" font-familyName="Helvetica" font-pixelSize="20" font-bold="0" font-underline="0" font-alignment="1" strokeStyle="0" markerStart="0" markerEnd="0" shadowEnabled="0" shadowOffsetX="0" shadowOffsetY="2" shadowBlur="4" shadowOpacity="160" blurEnabled="0" blurRadius="4" transform="matrix(0.799407,0,0,0.798771,463.892,39.889)" pers-center="0,0" pers-size="0,0" pers-start="0,0" pers-end="0,0" groupID="1" locked="0" mesh="" flag=""/>
            <path id="shapePath9" d="M426.719,39.889 C426.719,19.3755 443.362,2.74614 463.892,2.74614 C484.422,2.74614 501.064,19.3756 501.064,39.889 C501.064,60.4024 484.422,77.0318 463.892,77.0318 C443.362,77.0318 426.719,60.4024 426.719,39.889 Z" style="stroke:none;fill-rule:evenodd;fill:#f0fc8f;fill-opacity:1;"/>
        </g>
        <g id="Shape10">
            <desc type="2" basicInfo-basicType="0" basicInfo-roundedRectRadius="12" basicInfo-polygonSides="6" basicInfo-starPoints="5" bounding="rect(-21.9837,-19.5699,43.9674,39.1398)" text="i" font-familyName="Arial Black" font-pixelSize="57" font-bold="1" font-underline="0" font-alignment="1" strokeStyle="0" markerStart="0" markerEnd="0" shadowEnabled="0" shadowOffsetX="0" shadowOffsetY="2" shadowBlur="4" shadowOpacity="160" blurEnabled="0" blurRadius="4" transform="matrix(1,0,0,1,463.898,34.4293)" pers-center="0,0" pers-size="0,0" pers-start="0,0" pers-end="0,0" groupID="1" locked="0" mesh="" flag=""/>
            <path id="shapePath10" d="M458.254,15.7838 L469.582,15.7838 L469.582,23.4933 L458.254,23.4933 L458.254,15.7838 M458.254,27.0279 L469.582,27.0279 L469.582,56.5856 L458.254,56.5856 L458.254,27.0279 " style="stroke:none;fill-rule:nonzero;fill:#ffffff;fill-opacity:1;"/>
        </g>
        <g id="Shape11">
            <desc type="0" basicInfo-basicType="4" basicInfo-roundedRectRadius="12" basicInfo-polygonSides="6" basicInfo-starPoints="5" bounding="rect(-46.5,-46.5,93,93)" text="" font-familyName="Helvetica" font-pixelSize="20" font-bold="0" font-underline="0" font-alignment="1" strokeStyle="0" markerStart="0" markerEnd="0" shadowEnabled="0" shadowOffsetX="0" shadowOffsetY="2" shadowBlur="4" shadowOpacity="160" blurEnabled="0" blurRadius="4" transform="matrix(0.799407,0,0,0.798771,383.757,39.889)" pers-center="0,0" pers-size="0,0" pers-start="0,0" pers-end="0,0" groupID="1" locked="0" mesh="" flag=""/>
            <path id="shapePath11" d="M346.585,39.889 C346.585,19.3755 363.227,2.74614 383.757,2.74614 C404.287,2.74614 420.929,19.3756 420.929,39.889 C420.929,60.4024 404.287,77.0318 383.757,77.0318 C363.227,77.0318 346.585,60.4024 346.585,39.889 Z" style="stroke:none;fill-rule:evenodd;fill:#fc7f77;fill-opacity:1;"/>
        </g>
        <g id="Shape12">
            <desc type="2" basicInfo-basicType="0" basicInfo-roundedRectRadius="12" basicInfo-polygonSides="6" basicInfo-starPoints="5" bounding="rect(-21.9837,-19.5699,43.9674,39.1398)" text="s" font-familyName="Arial Black" font-pixelSize="59" font-bold="1" font-underline="0" font-alignment="1" strokeStyle="0" markerStart="0" markerEnd="0" shadowEnabled="0" shadowOffsetX="0" shadowOffsetY="2" shadowBlur="4" shadowOpacity="160" blurEnabled="0" blurRadius="4" transform="matrix(1,0,0,1,383.763,34.4293)" pers-center="0,0" pers-size="0,0" pers-start="0,0" pers-end="0,0" groupID="1" locked="0" mesh="" flag=""/>
            <path id="shapePath12" d="M367.217,49.319 L378.855,48.2242 C379.336,49.607 380.008,50.5961 380.872,51.1915 C381.736,51.7869 382.889,52.0846 384.329,52.0846 C385.904,52.0846 387.123,51.7485 387.988,51.0763 C388.66,50.5769 388.996,49.9527 388.996,49.2037 C388.996,48.3587 388.554,47.7057 387.671,47.2447 C387.037,46.9182 385.357,46.5149 382.629,46.0348 C378.558,45.3242 375.73,44.6664 374.145,44.0614 C372.561,43.4564 371.226,42.4337 370.141,40.9933 C369.056,39.5528 368.513,37.9108 368.513,36.067 C368.513,34.0504 369.099,32.3123 370.27,30.8526 C371.442,29.393 373.055,28.3031 375.11,27.5829 C377.165,26.8627 379.921,26.5025 383.378,26.5025 C387.027,26.5025 389.721,26.781 391.459,27.338 C393.197,27.895 394.647,28.7592 395.809,29.9308 C396.971,31.1023 397.936,32.6868 398.704,34.6842 L387.584,35.7789 C387.296,34.7994 386.816,34.0792 386.144,33.6183 C385.222,33.0037 384.108,32.6964 382.802,32.6964 C381.477,32.6964 380.512,32.9317 379.907,33.4022 C379.302,33.8727 378.999,34.4441 378.999,35.1163 C378.999,35.8653 379.384,36.4319 380.152,36.816 C380.92,37.2001 382.591,37.5458 385.164,37.8531 C389.063,38.2949 391.963,38.9095 393.865,39.6969 C395.766,40.4843 397.221,41.6079 398.229,43.0675 C399.237,44.5271 399.742,46.1308 399.742,47.8785 C399.742,49.6455 399.209,51.3644 398.143,53.0353 C397.077,54.7062 395.396,56.0362 393.101,57.0253 C390.806,58.0144 387.68,58.5089 383.724,58.5089 C378.135,58.5089 374.155,57.7119 371.783,56.1178 C369.411,54.5237 367.889,52.2574 367.217,49.319 Z" style="stroke:none;fill-rule:nonzero;fill:#ffffff;fill-opacity:1;"/>
        </g>
        <g id="Shape13">
            <desc type="0" basicInfo-basicType="1" basicInfo-roundedRectRadius="12" basicInfo-polygonSides="6" basicInfo-starPoints="5" bounding="rect(-47.5,-42,95,84)" text="" font-familyName="Helvetica" font-pixelSize="20" font-bold="0" font-underline="0" font-alignment="1" strokeStyle="0" markerStart="0" markerEnd="0" shadowEnabled="0" shadowOffsetX="0" shadowOffsetY="2" shadowBlur="4" shadowOpacity="160" blurEnabled="0" blurRadius="4" transform="matrix(0.949296,0,0,0.952381,45.0915,40)" pers-center="0,0" pers-size="0,0" pers-start="0,0" pers-end="0,0" groupID="1" locked="0" mesh="" flag=""/>
            <path id="shapePath13" d="M-3.8147e-06,1.52588e-05 L90.1831,1.52588e-05 L90.1831,80 L-3.8147e-06,80 L-3.8147e-06,1.52588e-05 Z" style="stroke:none;fill-rule:evenodd;fill:#4dc0ff;fill-opacity:1;"/>
        </g>
        <g id="Shape14">
            <desc type="2" basicInfo-basicType="0" basicInfo-roundedRectRadius="12" basicInfo-polygonSides="6" basicInfo-starPoints="5" bounding="rect(-21.9837,-19.5699,43.9674,39.1398)" text="W" font-familyName="Arial Black" font-pixelSize="57" font-bold="1" font-underline="0" font-alignment="1" strokeStyle="0" markerStart="0" markerEnd="0" shadowEnabled="0" shadowOffsetX="0" shadowOffsetY="2" shadowBlur="4" shadowOpacity="160" blurEnabled="0" blurRadius="4" transform="matrix(1,0,0,1,45.0123,38.9257)" pers-center="0,0" pers-size="0,0" pers-start="0,0" pers-end="0,0" groupID="1" locked="0" mesh="" flag=""/>
            <path id="shapePath14" d="M16.4845,20.2802 L28.4522,20.2802 L32.7662,43.0747 L39.0562,20.2802 L50.9962,20.2802 L57.314,43.0747 L61.628,20.2802 L73.5401,20.2802 L64.5504,61.082 L52.193,61.082 L45.0401,35.393 L37.9151,61.082 L25.5577,61.082 L16.4845,20.2802 Z" style="stroke:none;fill-rule:nonzero;fill:#ffffff;fill-opacity:1;"/>
        </g>
    </g>
</svg>
